<svg width="160" height="101" viewBox="0 0 160 101" fill="none" xmlns="http://www.w3.org/2000/svg">
<g clip-path="url(#clip0_2385_3782)">
<path fill-rule="evenodd" clip-rule="evenodd" d="M86.463 9.04227C78.2042 13.8507 71.3314 17.9008 71.1902 18.0426C71.0197 18.2139 78.8949 32.1529 94.695 59.6456L118.457 100.991L139.235 100.996L160.013 101L159.632 100.29C156.546 94.5428 102.091 0.37513 101.835 0.343616C101.639 0.319593 94.7218 4.23405 86.463 9.04227ZM50.9942 43.3381C42.4759 48.2716 35.5045 52.3857 35.5025 52.4805C35.5002 52.5751 41.7355 63.5017 49.3587 76.7619L63.2193 100.871L83.9568 100.937C95.3625 100.973 104.695 100.943 104.695 100.869C104.695 100.726 66.9021 34.8724 66.6379 34.5555C66.552 34.4524 59.5123 38.4046 50.9942 43.3381ZM15.5645 77.7073C7.0765 82.6333 0.140939 86.7622 0.151486 86.8823C0.16229 87.0026 1.95573 90.2248 4.13708 94.0429L8.10287 100.985L28.8897 100.993C40.3225 100.997 49.628 100.913 49.5683 100.806C47.1398 96.4633 31.4716 69.2649 31.2769 69.0538C31.0667 68.8268 27.1393 70.9896 15.5645 77.7073Z" fill="white"/>
</g>
<defs>
<clipPath id="clip0_2385_3782">
<rect width="160" height="101" fill="white"/>
</clipPath>
</defs>
</svg>
