<svg width="256" height="224" viewBox="0 0 256 224" fill="none" xmlns="http://www.w3.org/2000/svg">
<g clip-path="url(#clip0_1413_16115)">
<path d="M0 49.0055C0 39.3132 2.88317 29.8384 8.28491 21.7795C13.6867 13.7206 21.3644 7.43945 30.3471 3.73034C39.3299 0.0212335 49.2143 -0.949239 58.7503 0.941649C68.2864 2.83254 77.0458 7.49986 83.9209 14.3534C90.796 21.2069 95.4781 29.9389 97.3749 39.445C99.2717 48.9512 98.2982 58.8045 94.5774 67.7591C90.8566 76.7137 84.5557 84.3673 76.4714 89.7521C68.3872 95.1369 58.8826 98.011 49.1597 98.011C36.1218 98.011 23.6178 92.848 14.3986 83.6577C5.17932 74.4673 0 62.0026 0 49.0055" fill="#FFE600"/>
<path d="M49.2048 223.095C45.8354 222.944 42.6635 221.467 40.3842 218.989C38.1048 216.51 36.9039 213.232 37.0444 209.873V129.551C36.9597 127.884 37.2083 126.217 37.7757 124.647C38.3431 123.077 39.218 121.634 40.3495 120.404C41.481 119.174 42.8465 118.18 44.3668 117.48C45.887 116.781 47.5315 116.389 49.2048 116.329C126.559 116.329 132.684 11.9875 243.817 11.9875C247.191 12.1333 250.368 13.6075 252.652 16.0865C254.936 18.5655 256.14 21.8467 256 25.2098V104.701C256.134 108.062 254.928 111.34 252.645 113.818C250.363 116.295 247.188 117.771 243.817 117.923C168.039 117.923 163.333 223.095 49.2048 223.095" fill="#FFE600"/>
</g>
<defs>
<clipPath id="clip0_1413_16115">
<rect width="256" height="223.095" fill="white"/>
</clipPath>
</defs>
</svg>
