<svg width="149" height="153" viewBox="0 0 149 153" fill="none" xmlns="http://www.w3.org/2000/svg">
<path fill-rule="evenodd" clip-rule="evenodd" d="M49.9314 119.919V102.255C43.8926 100.648 35.7126 97.2298 29.7629 90.0388C17.6646 97.3913 7.54116 107.721 0.33429 119.919H49.9314Z" fill="white"/>
<mask id="mask0_2385_3847" style="mask-type:luminance" maskUnits="userSpaceOnUse" x="98" y="81" width="51" height="39">
<path fill-rule="evenodd" clip-rule="evenodd" d="M98.6387 81.1431H148.238V119.919H98.6387V81.1431Z" fill="white"/>
</mask>
<g mask="url(#mask0_2385_3847)">
<path fill-rule="evenodd" clip-rule="evenodd" d="M148.238 119.919C137.323 101.407 119.668 87.3581 98.6387 81.1431V119.919H148.238Z" fill="white"/>
</g>
<path fill-rule="evenodd" clip-rule="evenodd" d="M104.988 33.2027C95.9713 23.7011 73.5371 30.8654 73.4333 17.2732C73.3939 12.8018 75.9711 10.2871 77.3404 9.25747C77.3404 9.25747 77.4407 9.19024 77.3957 9.123C77.3536 9.05099 77.2434 9.11306 77.2227 9.12738C74.9045 10.2513 69.1692 13.7181 68.6389 20.7885C67.7815 32.2849 79.7215 39.5331 83.0125 54.252C84.7566 62.0413 84.9973 69.7379 83.7453 78.1427C83.4926 79.8343 83.2006 81.5418 82.8286 83.2983C80.59 93.7543 75.9822 105.458 69.2874 119.918C69.281 119.93 69.2734 119.941 69.2687 119.957C69.2687 119.957 69.1692 120.18 69.3419 120.255C69.5476 120.345 69.686 120.075 69.686 120.075C69.7135 120.022 69.7397 119.968 69.7743 119.918C78.3553 104.669 87.2045 91.4544 94.3819 80.0062C107.577 58.9628 115.129 43.8867 104.988 33.2027Z" fill="white"/>
<path fill-rule="evenodd" clip-rule="evenodd" d="M33.4894 87.9041C38.3801 93.5148 44.8362 96.4143 49.9314 97.9094C53.4431 98.9386 56.3163 99.3066 57.5715 99.4299C57.5985 99.4299 57.7079 99.4458 57.7143 99.3603C57.7163 99.2871 57.6109 99.2525 57.6109 99.2525C54.719 98.23 52.1827 97.1002 49.9314 95.8983C44.2021 92.8389 40.4254 89.2886 38.0423 85.6328C30.5593 74.1599 36.6542 61.6745 38.3478 60.3385C35.4746 71.4371 37.6433 79.0084 41.4144 84.1393C43.8878 87.5058 47.0446 89.8245 49.9314 91.3816C53.1002 93.0923 55.9352 93.9003 57.1422 94.1911C57.1975 94.2019 57.2759 94.2182 57.3045 94.1454C57.328 94.0619 57.1915 93.9914 57.1915 93.9914C54.0757 92.1252 51.7105 90.1344 49.9314 88.099C48.2493 86.1727 47.1075 84.2141 46.3524 82.2798C42.7301 72.9907 48.303 64.447 48.303 64.447C46.3472 71.5529 47.421 77.1895 49.5104 81.2554C49.6485 81.5219 49.7854 81.7925 49.9314 82.0499C51.8283 85.3448 54.3724 87.4828 56.3278 88.3699C56.4655 88.4344 56.5387 88.3087 56.444 88.1901C55.2712 86.674 54.4588 84.7814 54.1672 82.6586C54.0442 81.7539 54.0609 80.8742 54.1357 80.0093C54.5364 75.4306 57.5619 71.6599 61.7229 71.0961C65.2188 70.6215 68.4317 72.2706 70.5876 75.201C71.1096 75.9108 71.5941 76.7331 72.0357 77.6665C73.394 80.5619 74.2983 84.5574 74.2418 89.686C74.1837 94.963 72.8772 101.423 70.2606 109.124C70.2606 109.124 70.1838 109.331 70.3596 109.399C70.5434 109.454 70.6533 109.242 70.6533 109.242C74.2119 102.724 78.7748 89.789 79.7069 77.7993C79.9138 75.1131 79.9448 72.4723 79.7375 69.9683C78.3622 53.7599 65.3974 41.615 50.7644 42.8507C48.7203 43.0245 46.7618 43.4506 44.8947 44.0951C33.8686 47.5691 24.6594 58.0446 26.639 72.4691C27.6145 79.1138 30.1981 84.119 33.4894 87.9041Z" fill="white"/>
<path fill-rule="evenodd" clip-rule="evenodd" d="M81.5713 22.3282C81.7507 22.3771 81.9385 22.3282 81.9668 22.103C82.1096 21.1179 82.4836 18.1592 82.4867 18.1186C82.4935 18.0573 82.5544 17.8059 82.2468 17.687C78.4702 16.46 78.0775 12.6026 78.0349 11.6505C78.0349 11.6505 78.048 11.5622 77.9919 11.5491C77.9406 11.5352 77.8945 11.6247 77.8945 11.6247C76.981 13.0804 74.5025 20.3982 81.5713 22.3282Z" fill="white"/>
<mask id="mask1_2385_3847" style="mask-type:luminance" maskUnits="userSpaceOnUse" x="52" y="0" width="26" height="11">
<path fill-rule="evenodd" clip-rule="evenodd" d="M52.9051 0.543945H77.5262V10.6735H52.9051V0.543945Z" fill="white"/>
</mask>
<g mask="url(#mask1_2385_3847)">
<path fill-rule="evenodd" clip-rule="evenodd" d="M77.2953 6.09223C77.5575 5.90962 77.5822 5.75247 77.4405 5.5074C76.8056 4.41573 74.7496 0.938208 74.6254 0.738094C74.4743 0.491831 74.3637 0.467563 74.1285 0.738094C72.6418 2.45716 65.4059 9.80566 53.1803 6.03573C53.0816 6.0047 52.9953 5.97725 52.94 6.03016C52.8823 6.07631 52.8982 6.16105 52.9726 6.22709C63.6009 15.5322 75.106 7.57935 77.2953 6.09223Z" fill="white"/>
</g>
<path fill-rule="evenodd" clip-rule="evenodd" d="M33.0562 140.767V140.776C33.0562 141.839 32.8935 142.672 32.582 143.229C32.2693 143.782 31.846 144.052 31.2313 144.052C30.847 144.052 30.5673 143.989 30.3533 143.843C30.0211 143.619 29.7784 143.161 29.6232 142.241C29.4681 141.332 29.4092 139.998 29.4092 138.112V138.103V138.026C29.4092 136.338 29.4553 135.069 29.7119 134.264C29.7664 134.092 29.8385 133.95 29.9041 133.822C30.0063 133.639 30.1193 133.488 30.253 133.383C30.4897 133.192 30.7925 133.092 31.2313 133.092C31.8818 133.102 32.2744 133.276 32.5593 133.724C32.5788 133.751 32.5919 133.792 32.6042 133.822C32.8601 134.281 32.9905 135.033 32.9965 136.161V136.184V136.385H37.7976V136.184L37.7925 136.18C37.7925 135.292 37.6723 134.523 37.4833 133.822C37.1997 132.785 36.7438 131.924 36.0718 131.293C34.9364 130.226 33.2921 129.737 31.2345 129.737H31.2313H31.1967C28.2805 129.737 26.5813 130.742 25.6794 132.346C25.4204 132.794 25.2358 133.294 25.0835 133.822C24.7011 135.165 24.6108 136.721 24.6108 138.363C24.6108 140.971 24.7899 143.217 25.72 144.845C26.647 146.468 28.3434 147.421 31.1939 147.421H31.2174H31.2345C33.3208 147.421 34.9785 146.931 36.1251 145.825C37.2653 144.729 37.8498 143.051 37.8498 140.773V140.767V140.569H33.0562V140.767Z" fill="white"/>
<path fill-rule="evenodd" clip-rule="evenodd" d="M47.5475 143.084C47.2491 143.989 46.7303 144.275 45.9219 144.275H45.9064C45.0908 144.275 44.5772 143.992 44.2681 143.084C43.9713 142.169 43.8643 140.632 43.8643 138.103C43.8643 136.375 43.9025 135.069 44.1825 134.191C44.2207 134.053 44.2836 133.941 44.3405 133.821C44.6353 133.206 45.1195 132.871 45.9064 132.871C46.6949 132.871 47.187 133.206 47.4806 133.821C47.5328 133.941 47.5956 134.053 47.6418 134.191C47.9207 135.069 47.96 136.375 47.96 138.103C47.96 140.632 47.8522 142.169 47.5475 143.084ZM51.467 132.345C50.5611 130.742 48.8675 129.736 45.9505 129.736H45.9064H45.8749C42.9584 129.736 41.2683 130.742 40.3497 132.345C40.0923 132.793 39.9137 133.294 39.7669 133.821C39.385 135.165 39.2978 136.721 39.2927 138.362C39.2978 140.971 39.4796 143.217 40.4018 144.844C41.3256 146.472 43.0212 147.421 45.8749 147.421H45.9064H45.9505C48.7991 147.421 50.4982 146.468 51.4196 144.84C52.347 143.217 52.5356 140.971 52.5356 138.362C52.5356 136.721 52.4413 135.165 52.051 133.821C51.907 133.294 51.724 132.793 51.467 132.345Z" fill="white"/>
<path fill-rule="evenodd" clip-rule="evenodd" d="M62.2796 143.022C61.9832 143.931 61.4576 144.207 60.6508 144.207H60.6405C60.4984 144.207 60.3719 144.201 60.2414 144.186C59.5961 144.093 59.1764 143.706 58.927 142.77C58.6835 141.844 58.5972 140.353 58.5972 138.038C58.5972 136.453 58.6314 135.228 58.8406 134.362C59.0567 133.499 59.4593 132.988 60.2001 132.848C60.3333 132.824 60.4754 132.815 60.6405 132.815C61.5841 132.809 62.1037 133.26 62.3786 134.136C62.6412 135.006 62.6881 136.311 62.6881 138.038C62.6881 140.574 62.5843 142.107 62.2796 143.022ZM62.6881 131.394L62.6567 131.345C61.9139 130.298 60.8975 129.882 59.6618 129.786C59.552 129.782 59.4497 129.772 59.3467 129.772C58.0255 129.772 56.6119 130.364 55.6388 131.494C55.4244 131.739 55.2454 132 55.0806 132.286C54.9736 132.481 54.9048 132.705 54.8153 132.912C54.6876 133.206 54.5658 133.501 54.4775 133.821C54.1079 135.152 54.0176 136.685 54.014 138.299C54.0176 140.907 54.1935 143.15 55.1328 144.777C55.9428 146.191 57.4518 147.345 59.2767 147.345C59.4231 147.345 59.5723 147.333 59.7246 147.323C60.9241 147.2 61.6737 146.746 62.4371 145.838L62.4729 145.799V152.328H66.9395V130.002H62.6881V131.394Z" fill="white"/>
<path fill-rule="evenodd" clip-rule="evenodd" d="M119.758 131.648V130.032H115.46V133.821V147.063H119.973V137.363V137.28C119.973 136.516 120.007 135.653 120.384 134.99C120.744 134.375 121.42 133.912 122.735 133.821C122.875 133.812 122.976 133.784 123.125 133.784C123.299 133.784 123.487 133.794 123.679 133.806L123.854 133.821L123.902 133.827V133.821V129.71H123.643C120.702 129.666 119.758 131.648 119.758 131.648Z" fill="white"/>
<path fill-rule="evenodd" clip-rule="evenodd" d="M108.683 143.057C108.381 143.966 107.868 144.244 107.056 144.244H107.044C106.228 144.245 105.713 143.968 105.408 143.057C105.097 142.144 104.992 140.605 104.992 138.072C104.992 136.346 105.038 135.045 105.313 134.168C105.355 134.036 105.412 133.935 105.464 133.822C105.761 133.187 106.241 132.844 107.044 132.848C107.846 132.844 108.326 133.187 108.621 133.822C108.674 133.935 108.728 134.036 108.767 134.168C109.05 135.045 109.087 136.346 109.087 138.072C109.087 140.605 108.987 142.144 108.683 143.057ZM112.607 132.328C111.693 130.717 109.997 129.71 107.081 129.71H107.044H107.007C104.092 129.71 102.391 130.717 101.483 132.328C101.231 132.78 101.043 133.289 100.896 133.822C100.517 135.158 100.42 136.704 100.42 138.336C100.421 140.946 100.598 143.187 101.533 144.813C102.46 146.441 104.162 147.392 107.007 147.392H107.044H107.071H107.081C109.933 147.392 111.627 146.441 112.555 144.813C113.482 143.187 113.666 140.946 113.666 138.336C113.666 136.704 113.577 135.158 113.197 133.822C113.046 133.289 112.86 132.78 112.607 132.328Z" fill="white"/>
<path fill-rule="evenodd" clip-rule="evenodd" d="M79.0949 136.338C78.4134 136.017 77.8139 135.715 77.4013 135.373C76.9705 135.038 76.7767 134.704 76.76 134.289C76.7465 133.754 76.8408 133.331 77.0703 133.087C77.3349 132.807 77.7009 132.736 78.0633 132.736C78.4735 132.736 78.8021 132.882 78.9979 133.092C79.2891 133.403 79.4124 133.747 79.4124 134.919V135.207H84.1013C84.1013 135.207 84.1344 134.712 84.1344 134.559V134.551C84.1344 132.869 83.4473 131.635 82.3922 130.854C81.3356 130.063 79.9153 129.713 78.4584 129.71C77.0067 129.713 75.4372 129.985 74.1888 130.732C72.9499 131.476 72.0512 132.716 72.0512 134.566V134.587V134.595C72.0512 135.963 72.5668 136.975 73.3199 137.722C74.4545 138.851 76.1107 139.45 77.4507 140.104C78.1246 140.426 78.7257 140.758 79.1371 141.159C79.5489 141.562 79.7884 142.008 79.7884 142.612C79.7884 143.735 79.1168 144.175 78.2877 144.175C77.529 144.175 77.1758 143.907 76.9478 143.446C76.7867 143.08 76.7501 142.728 76.7501 142.003C76.7501 141.689 76.766 141.332 76.766 141.332H72.0607C72.0607 141.332 72.0416 141.934 72.0416 142.137V142.152C72.0416 144.244 72.6829 145.586 73.8291 146.379C74.9833 147.164 76.5555 147.384 78.4035 147.392C80.2725 147.392 81.7835 146.835 82.8434 145.891C83.9072 144.948 84.4908 143.626 84.4908 142.13V142.118V142.107C84.4908 140.729 83.9868 139.685 83.2305 138.881C82.0978 137.675 80.4476 136.982 79.0949 136.338Z" fill="white"/>
<path fill-rule="evenodd" clip-rule="evenodd" d="M94.0155 142.748C93.7692 143.68 93.3475 144.063 92.6923 144.159C92.565 144.174 92.4389 144.185 92.3024 144.185H92.2897C91.4761 144.185 90.9569 143.906 90.6601 142.993C90.3506 142.084 90.2503 140.55 90.2503 138.012C90.2503 136.283 90.2889 134.98 90.5607 134.106C90.8368 133.235 91.3583 132.786 92.3024 132.786C92.4544 132.786 92.6059 132.798 92.7436 132.824C93.0078 132.877 93.215 132.988 93.4016 133.137C93.6216 133.304 93.7943 133.527 93.9152 133.821C93.9829 133.976 94.0497 134.145 94.0931 134.335C94.3139 135.201 94.3425 136.432 94.3425 138.012C94.3425 140.324 94.2641 141.815 94.0155 142.748ZM97.8591 132.258C97.6979 131.973 97.5054 131.714 97.3001 131.469C96.3278 130.345 94.9142 129.75 93.5942 129.75C93.5321 129.75 93.4713 129.753 93.4017 129.755C93.3623 129.755 93.3193 129.755 93.2859 129.758C92.043 129.849 91.0285 130.271 90.283 131.323L90.2504 131.367V129.971H86.0018V152.298H90.4716V147.201V145.765L90.509 145.81C91.2664 146.721 92.0215 147.176 93.2151 147.295C93.367 147.312 93.5226 147.313 93.669 147.313C95.4824 147.313 96.989 146.167 97.8129 144.748C98.7462 143.13 98.9161 140.884 98.9249 138.274C98.9161 136.668 98.8334 135.145 98.4634 133.822C98.3162 133.264 98.1244 132.73 97.8591 132.258Z" fill="white"/>
<path fill-rule="evenodd" clip-rule="evenodd" d="M129.804 125.222L129.516 125.352L125.273 127.507V133.822V143.337C125.273 143.88 125.401 144.84 126.036 145.689C126.677 146.527 127.702 147.233 129.49 147.233C131.165 147.233 131.986 147.013 131.986 147.013V143.728C131.986 143.728 131.609 143.86 131.006 143.86C130.343 143.86 130.103 143.7 129.962 143.446C129.826 143.197 129.804 142.783 129.804 142.242V133.822V133.488H132.076V130.032H129.804V125.222Z" fill="white"/>
<path fill-rule="evenodd" clip-rule="evenodd" d="M133.9 130.032V147.064H134.103H138.232V133.953V130.032H136.728H133.9Z" fill="white"/>
<path fill-rule="evenodd" clip-rule="evenodd" d="M133.9 124.48V128.179H134.103H135.888H138.232V124.48H134.06H133.9Z" fill="white"/>
<path fill-rule="evenodd" clip-rule="evenodd" d="M146.196 128.302C146.345 128.046 146.579 127.886 147.245 127.886C147.846 127.886 148.22 128.02 148.22 128.02V124.739C148.22 124.739 147.404 124.52 145.734 124.52C143.94 124.52 143.108 125.222 142.468 126.064C141.832 126.909 141.703 127.869 141.703 128.415L141.706 130.032H139.715V133.489H141.68V147.063H146.038V133.489H148.095V130.032H146.038V129.502C146.038 128.968 146.071 128.548 146.196 128.302Z" fill="white"/>
<path fill-rule="evenodd" clip-rule="evenodd" d="M15.1546 136.711V136.722V136.732H11.1058V136.722V136.711V136.525C11.1058 135.813 11.1233 134.902 11.3632 134.152C11.5701 133.502 11.9636 132.976 12.6626 132.824C12.8074 132.798 12.9621 132.782 13.1332 132.782C13.3031 132.782 13.4583 132.798 13.5939 132.824C14.3001 132.976 14.6852 133.502 14.9032 134.152C15.1499 134.902 15.1546 135.813 15.1546 136.525V136.711ZM18.5482 132.136C17.9041 131.121 16.917 130.4 15.527 130.028C14.8343 129.843 14.0534 129.736 13.1507 129.736H13.1185H13.1145H13.0822C12.5193 129.736 12.0152 129.786 11.543 129.857C9.54983 130.16 8.28867 131.053 7.55665 132.345C6.64917 133.947 6.49998 136.081 6.49481 138.362C6.49799 140.58 6.65992 142.509 7.26821 144.046C7.37404 144.315 7.46872 144.598 7.60399 144.844C8.53056 146.472 10.2345 147.421 13.0822 147.421H13.0986H13.1145H13.1185C15.2182 147.421 16.8303 146.803 17.8981 145.743C19.0101 144.682 19.5806 143.15 19.6446 141.301L19.6494 141.093H14.787V141.312C14.787 141.983 14.7007 142.695 14.4496 143.206C14.197 143.727 13.7856 144.052 13.1793 144.052C12.6605 144.052 12.3781 143.9 12.1362 143.629C11.4181 142.859 11.3246 141.007 11.3246 139.556V139.532V139.517H19.7329L19.7389 139.321C19.7548 138.895 19.7592 138.479 19.7592 138.071C19.7548 136.487 19.6227 135.057 19.2623 133.821C19.0825 133.213 18.8664 132.632 18.5482 132.136Z" fill="white"/>
<path fill-rule="evenodd" clip-rule="evenodd" d="M0.363831 147.091H0.56832H4.69591V124.509H0.363831V147.091Z" fill="white"/>
</svg>
