<svg width="115" height="48" viewBox="0 0 115 48" fill="none" xmlns="http://www.w3.org/2000/svg">
<g clip-path="url(#clip0_2385_1729)">
<g clip-path="url(#clip1_2385_1729)">
<g filter="url(#filter0_d_2385_1729)">
<rect y="14.2616" width="25.1048" height="25.2028" rx="3.68115" fill="white"/>
<rect y="14.2616" width="25.1048" height="25.2028" rx="3.68115" fill="url(#paint0_linear_2385_1729)"/>
</g>
<path d="M11.9814 26.9967C11.9814 29.5668 11.5586 31.4692 10.7131 32.7039C9.87429 33.9387 8.57918 34.556 6.82776 34.556C5.13002 34.556 3.84833 33.9185 2.98268 32.6436C2.12375 31.3686 1.69428 29.4863 1.69428 26.9967C1.69428 24.3998 2.11368 22.4873 2.95249 21.2593C3.79129 20.0246 5.08305 19.4072 6.82776 19.4072C8.5255 19.4072 9.80719 20.0514 10.6728 21.3398C11.5452 22.6282 11.9814 24.5139 11.9814 26.9967ZM4.78443 26.9967C4.78443 28.8018 4.93877 30.0969 5.24745 30.8821C5.56284 31.6605 6.08961 32.0497 6.82776 32.0497C7.55249 32.0497 8.0759 31.6538 8.398 30.8619C8.7201 30.0701 8.88115 28.7817 8.88115 26.9967C8.88115 25.1916 8.71674 23.8965 8.38793 23.1114C8.06583 22.3196 7.54577 21.9236 6.82776 21.9236C6.09632 21.9236 5.57291 22.3196 5.25752 23.1114C4.94213 23.8965 4.78443 25.1916 4.78443 26.9967ZM23.7582 26.9967C23.7582 29.5668 23.3354 31.4692 22.4899 32.7039C21.6511 33.9387 20.356 34.556 18.6046 34.556C16.9068 34.556 15.6251 33.9185 14.7595 32.6436C13.9006 31.3686 13.4711 29.4863 13.4711 26.9967C13.4711 24.3998 13.8905 22.4873 14.7293 21.2593C15.5681 20.0246 16.8599 19.4072 18.6046 19.4072C20.3023 19.4072 21.584 20.0514 22.4496 21.3398C23.322 22.6282 23.7582 24.5139 23.7582 26.9967ZM16.5612 26.9967C16.5612 28.8018 16.7156 30.0969 17.0243 30.8821C17.3396 31.6605 17.8664 32.0497 18.6046 32.0497C19.3293 32.0497 19.8527 31.6538 20.1748 30.8619C20.4969 30.0701 20.658 28.7817 20.658 26.9967C20.658 25.1916 20.4935 23.8965 20.1647 23.1114C19.8426 22.3196 19.3226 21.9236 18.6046 21.9236C17.8731 21.9236 17.3497 22.3196 17.0343 23.1114C16.7189 23.8965 16.5612 25.1916 16.5612 26.9967Z" fill="#1D1D1D"/>
<g opacity="0.5" filter="url(#filter1_d_2385_1729)">
<path d="M0 26.863H25.1048" stroke="#979797" stroke-width="0.5"/>
</g>
</g>
<g clip-path="url(#clip2_2385_1729)">
<g filter="url(#filter2_d_2385_1729)">
<rect x="29.373" y="14.5136" width="25.1048" height="25.2028" rx="3.68115" fill="white"/>
<rect x="29.373" y="14.5136" width="25.1048" height="25.2028" rx="3.68115" fill="url(#paint1_linear_2385_1729)"/>
</g>
<path d="M41.3544 27.2488C41.3544 29.8189 40.9317 31.7213 40.0861 32.956C39.2473 34.1907 37.9522 34.8081 36.2008 34.8081C34.5031 34.8081 33.2214 34.1706 32.3557 32.8956C31.4968 31.6206 31.0673 29.7383 31.0673 27.2488C31.0673 24.6518 31.4867 22.7393 32.3255 21.5113C33.1643 20.2766 34.4561 19.6593 36.2008 19.6593C37.8985 19.6593 39.1802 20.3035 40.0459 21.5919C40.9182 22.8803 41.3544 24.7659 41.3544 27.2488ZM34.1575 27.2488C34.1575 29.0539 34.3118 30.349 34.6205 31.1341C34.9359 31.9125 35.4627 32.3017 36.2008 32.3017C36.9255 32.3017 37.4489 31.9058 37.771 31.114C38.0931 30.3221 38.2542 29.0337 38.2542 27.2488C38.2542 25.4437 38.0898 24.1485 37.761 23.3634C37.4389 22.5716 36.9188 22.1757 36.2008 22.1757C35.4694 22.1757 34.946 22.5716 34.6306 23.3634C34.3152 24.1485 34.1575 25.4437 34.1575 27.2488ZM53.1312 27.2488C53.1312 29.8189 52.7085 31.7213 51.8629 32.956C51.0241 34.1907 49.729 34.8081 47.9776 34.8081C46.2799 34.8081 44.9982 34.1706 44.1325 32.8956C43.2736 31.6206 42.8441 29.7383 42.8441 27.2488C42.8441 24.6518 43.2635 22.7393 44.1023 21.5113C44.9411 20.2766 46.2329 19.6593 47.9776 19.6593C49.6753 19.6593 50.957 20.3035 51.8227 21.5919C52.695 22.8803 53.1312 24.7659 53.1312 27.2488ZM45.9343 27.2488C45.9343 29.0539 46.0886 30.349 46.3973 31.1341C46.7127 31.9125 47.2395 32.3017 47.9776 32.3017C48.7023 32.3017 49.2257 31.9058 49.5479 31.114C49.87 30.3221 50.031 29.0337 50.031 27.2488C50.031 25.4437 49.8666 24.1485 49.5378 23.3634C49.2157 22.5716 48.6956 22.1757 47.9776 22.1757C47.2462 22.1757 46.7228 22.5716 46.4074 23.3634C46.092 24.1485 45.9343 25.4437 45.9343 27.2488Z" fill="#1D1D1D"/>
<g opacity="0.5" filter="url(#filter3_d_2385_1729)">
<path d="M29.373 27.115H54.4778" stroke="#979797" stroke-width="0.5"/>
</g>
</g>
<g clip-path="url(#clip3_2385_1729)">
<g filter="url(#filter4_d_2385_1729)">
<rect x="58.7452" y="14.7657" width="25.1048" height="25.2028" rx="3.68115" fill="white"/>
<rect x="58.7452" y="14.7657" width="25.1048" height="25.2028" rx="3.68115" fill="url(#paint2_linear_2385_1729)"/>
</g>
<path d="M70.7266 27.5008C70.7266 30.0709 70.3038 31.9733 69.4583 33.208C68.6195 34.4427 67.3244 35.0601 65.573 35.0601C63.8752 35.0601 62.5936 34.4226 61.7279 33.1476C60.869 31.8726 60.4395 29.9904 60.4395 27.5008C60.4395 24.9039 60.8589 22.9914 61.6977 21.7634C62.5365 20.5287 63.8283 19.9113 65.573 19.9113C67.2707 19.9113 68.5524 20.5555 69.4181 21.8439C70.2904 23.1323 70.7266 25.0179 70.7266 27.5008ZM63.5297 27.5008C63.5297 29.3059 63.684 30.601 63.9927 31.3861C64.3081 32.1645 64.8348 32.5537 65.573 32.5537C66.2977 32.5537 66.8211 32.1578 67.1432 31.366C67.4653 30.5742 67.6264 29.2858 67.6264 27.5008C67.6264 25.6957 67.462 24.4006 67.1332 23.6154C66.8111 22.8236 66.291 22.4277 65.573 22.4277C64.8415 22.4277 64.3181 22.8236 64.0027 23.6154C63.6874 24.4006 63.5297 25.6957 63.5297 27.5008ZM82.5034 27.5008C82.5034 30.0709 82.0806 31.9733 81.2351 33.208C80.3963 34.4427 79.1012 35.0601 77.3498 35.0601C75.652 35.0601 74.3704 34.4226 73.5047 33.1476C72.6458 31.8726 72.2163 29.9904 72.2163 27.5008C72.2163 24.9039 72.6357 22.9914 73.4745 21.7634C74.3133 20.5287 75.6051 19.9113 77.3498 19.9113C79.0475 19.9113 80.3292 20.5555 81.1949 21.8439C82.0672 23.1323 82.5034 25.0179 82.5034 27.5008ZM75.3065 27.5008C75.3065 29.3059 75.4608 30.601 75.7695 31.3861C76.0849 32.1645 76.6116 32.5537 77.3498 32.5537C78.0745 32.5537 78.5979 32.1578 78.92 31.366C79.2421 30.5742 79.4032 29.2858 79.4032 27.5008C79.4032 25.6957 79.2388 24.4006 78.91 23.6154C78.5879 22.8236 78.0678 22.4277 77.3498 22.4277C76.6184 22.4277 76.0949 22.8236 75.7795 23.6154C75.4642 24.4006 75.3065 25.6957 75.3065 27.5008Z" fill="#1D1D1D"/>
<g opacity="0.5" filter="url(#filter5_d_2385_1729)">
<path d="M58.7452 27.3671H83.85" stroke="#979797" stroke-width="0.5"/>
</g>
</g>
<g clip-path="url(#clip4_2385_1729)">
<g filter="url(#filter6_d_2385_1729)">
<rect x="88.1182" y="14.5136" width="25.1048" height="25.2028" rx="3.68115" fill="white"/>
<rect x="88.1182" y="14.5136" width="25.1048" height="25.2028" rx="3.68115" fill="url(#paint3_linear_2385_1729)"/>
</g>
<path d="M100.1 27.2488C100.1 29.8189 99.6768 31.7213 98.8313 32.956C97.9925 34.1907 96.6973 34.8081 94.9459 34.8081C93.2482 34.8081 91.9665 34.1706 91.1008 32.8956C90.2419 31.6206 89.8124 29.7383 89.8124 27.2488C89.8124 24.6518 90.2318 22.7393 91.0707 21.5113C91.9095 20.2766 93.2012 19.6593 94.9459 19.6593C96.6437 19.6593 97.9254 20.3035 98.791 21.5919C99.6634 22.8803 100.1 24.7659 100.1 27.2488ZM92.9026 27.2488C92.9026 29.0539 93.0569 30.349 93.3656 31.1341C93.681 31.9125 94.2078 32.3017 94.9459 32.3017C95.6706 32.3017 96.1941 31.9058 96.5162 31.114C96.8383 30.3221 96.9993 29.0337 96.9993 27.2488C96.9993 25.4437 96.8349 24.1485 96.5061 23.3634C96.184 22.5716 95.6639 22.1757 94.9459 22.1757C94.2145 22.1757 93.6911 22.5716 93.3757 23.3634C93.0603 24.1485 92.9026 25.4437 92.9026 27.2488ZM111.876 27.2488C111.876 29.8189 111.454 31.7213 110.608 32.956C109.769 34.1907 108.474 34.8081 106.723 34.8081C105.025 34.8081 103.743 34.1706 102.878 32.8956C102.019 31.6206 101.589 29.7383 101.589 27.2488C101.589 24.6518 102.009 22.7393 102.847 21.5113C103.686 20.2766 104.978 19.6593 106.723 19.6593C108.42 19.6593 109.702 20.3035 110.568 21.5919C111.44 22.8803 111.876 24.7659 111.876 27.2488ZM104.679 27.2488C104.679 29.0539 104.834 30.349 105.142 31.1341C105.458 31.9125 105.985 32.3017 106.723 32.3017C107.447 32.3017 107.971 31.9058 108.293 31.114C108.615 30.3221 108.776 29.0337 108.776 27.2488C108.776 25.4437 108.612 24.1485 108.283 23.3634C107.961 22.5716 107.441 22.1757 106.723 22.1757C105.991 22.1757 105.468 22.5716 105.152 23.3634C104.837 24.1485 104.679 25.4437 104.679 27.2488Z" fill="#1D1D1D"/>
<g opacity="0.5" filter="url(#filter7_d_2385_1729)">
<path d="M88.1182 27.115H113.223" stroke="#979797" stroke-width="0.5"/>
</g>
</g>
<path d="M34.9147 47.7762C34.9147 47.8734 34.9588 47.9175 35.056 47.9175H35.5861C35.6789 47.9175 35.7275 47.8734 35.7275 47.7762V44.9314C35.7275 44.8386 35.6789 44.79 35.5861 44.79H35.056C34.9588 44.79 34.9147 44.8386 34.9147 44.9314V45.9562H34.5436V44.9314C34.5436 44.8386 34.495 44.79 34.4023 44.79H33.8722C33.775 44.79 33.7308 44.8386 33.7308 44.9314V47.7762C33.7308 47.8734 33.775 47.9175 33.8722 47.9175H34.4023C34.495 47.9175 34.5436 47.8734 34.5436 47.7762V46.6984H34.9147V47.7762ZM38.2767 46.6851C38.3694 46.6851 38.418 46.6409 38.418 46.5437V46.1108C38.418 46.0181 38.3694 45.9695 38.2767 45.9695H37.5875V45.5322H38.3208C38.4136 45.5322 38.4622 45.488 38.4622 45.3908V44.9314C38.4622 44.8386 38.4136 44.79 38.3208 44.79H36.9249C36.8278 44.79 36.7836 44.8386 36.7836 44.9314V47.7762C36.7836 47.8734 36.8278 47.9175 36.9249 47.9175H38.3385C38.4313 47.9175 38.4799 47.8734 38.4799 47.7762V47.3168C38.4799 47.224 38.4313 47.1754 38.3385 47.1754H37.5875V46.6851H38.2767ZM40.4549 47.9617C40.7994 47.9617 41.0556 47.891 41.2146 47.7453C41.3737 47.6039 41.4532 47.3654 41.4532 47.0297V44.9314C41.4532 44.8386 41.4046 44.79 41.3118 44.79H40.7817C40.6846 44.79 40.6404 44.8386 40.6404 44.9314V46.9148C40.6404 47.0297 40.6271 47.1092 40.6006 47.1533C40.5741 47.1975 40.5255 47.2196 40.4549 47.2196C40.3842 47.2196 40.3356 47.1975 40.3091 47.1533C40.2826 47.1092 40.2693 47.0297 40.2693 46.9148V44.9314C40.2693 44.8386 40.2207 44.79 40.128 44.79H39.5979C39.5007 44.79 39.4565 44.8386 39.4565 44.9314V47.0297C39.4565 47.3654 39.536 47.6039 39.6951 47.7453C39.8541 47.891 40.1059 47.9617 40.4549 47.9617ZM43.3094 46.3096V45.5233H43.433C43.5479 45.5233 43.623 45.5543 43.6583 45.6073C43.6937 45.6603 43.7113 45.7663 43.7113 45.9165C43.7113 46.0711 43.6937 46.1771 43.6583 46.2301C43.623 46.2831 43.5479 46.3096 43.433 46.3096H43.3094ZM42.6379 44.79C42.5407 44.79 42.4966 44.8386 42.4966 44.9314V47.7762C42.4966 47.8734 42.5407 47.9175 42.6379 47.9175H43.168C43.2608 47.9175 43.3094 47.8734 43.3094 47.7762V46.9987H43.3535L43.676 47.7939C43.6937 47.8469 43.7202 47.8778 43.7467 47.8955C43.7732 47.9131 43.8129 47.9175 43.8704 47.9175H44.4093C44.5241 47.9175 44.5551 47.8601 44.502 47.7409L44.1045 46.8574C44.3916 46.716 44.5374 46.4024 44.5374 45.9165C44.5374 45.488 44.4535 45.192 44.29 45.033C44.1266 44.874 43.8394 44.79 43.433 44.79H42.6379ZM47.0122 46.6851C47.105 46.6851 47.1536 46.6409 47.1536 46.5437V46.1108C47.1536 46.0181 47.105 45.9695 47.0122 45.9695H46.3231V45.5322H47.0564C47.1491 45.5322 47.1977 45.488 47.1977 45.3908V44.9314C47.1977 44.8386 47.1491 44.79 47.0564 44.79H45.6605C45.5633 44.79 45.5191 44.8386 45.5191 44.9314V47.7762C45.5191 47.8734 45.5633 47.9175 45.6605 47.9175H47.074C47.1668 47.9175 47.2154 47.8734 47.2154 47.7762V47.3168C47.2154 47.224 47.1668 47.1754 47.074 47.1754H46.3231V46.6851H47.0122ZM49.9363 47.065C49.9363 46.8485 49.8921 46.6718 49.8082 46.5305C49.7199 46.3936 49.5741 46.2478 49.3709 46.0888C49.1456 45.9209 49.0352 45.7707 49.0352 45.647C49.0352 45.5852 49.0528 45.5366 49.0882 45.5101C49.1235 45.4836 49.1854 45.4703 49.2781 45.4703C49.3974 45.4703 49.5122 45.4836 49.6183 45.5101C49.7375 45.5366 49.7994 45.5012 49.7994 45.4041V44.9623C49.7994 44.9093 49.7861 44.874 49.764 44.8475C49.7419 44.821 49.7066 44.8033 49.6536 44.79C49.5343 44.7635 49.3665 44.7459 49.1544 44.7459C48.801 44.7459 48.5493 44.8165 48.4035 44.9535C48.2577 45.0904 48.187 45.3157 48.187 45.6293C48.187 45.8767 48.2356 46.0799 48.3328 46.2301C48.43 46.3803 48.5625 46.5172 48.7392 46.6409C48.8894 46.7469 48.9822 46.8265 49.0263 46.875C49.0661 46.9236 49.0882 46.9766 49.0882 47.0385C49.0882 47.171 48.9689 47.2373 48.7348 47.2373C48.589 47.2373 48.4653 47.224 48.3637 47.1887C48.24 47.1533 48.1826 47.1887 48.1826 47.2947V47.7232C48.1826 47.7762 48.1914 47.8159 48.2135 47.838C48.2356 47.8601 48.2754 47.8778 48.3372 47.8955C48.4874 47.9396 48.6906 47.9617 48.9557 47.9617C49.2384 47.9617 49.4725 47.891 49.658 47.7453C49.8435 47.5995 49.9363 47.3742 49.9363 47.065Z" fill="black"/>
<path d="M6.53952 46.9236C6.53952 47.0252 6.52627 47.0915 6.49976 47.1268C6.47326 47.1622 6.42908 47.1754 6.37608 47.1754C6.34957 47.1754 6.31865 47.1754 6.27889 47.171C6.23914 47.1666 6.21263 47.1622 6.19496 47.1622C6.11103 47.1622 6.07128 47.2019 6.07128 47.277V47.7188C6.07128 47.816 6.11987 47.8778 6.22588 47.8999C6.32748 47.9264 6.44234 47.9352 6.56602 47.9352C6.84432 47.9352 7.0431 47.8778 7.16679 47.7541C7.29047 47.6348 7.35232 47.4096 7.35232 47.0783V44.9314C7.35232 44.8386 7.30373 44.7901 7.21096 44.7901H6.68087C6.58369 44.7901 6.53952 44.8386 6.53952 44.9314V46.9236ZM9.4219 44.7459C9.23637 44.7459 9.08177 44.768 8.9625 44.8121C8.83881 44.8563 8.73279 44.9402 8.64003 45.0551C8.54726 45.1699 8.481 45.3334 8.44125 45.5454C8.39707 45.7575 8.3794 46.0269 8.3794 46.3538C8.3794 46.6807 8.39707 46.9502 8.44125 47.1622C8.481 47.3742 8.54726 47.5421 8.64003 47.6569C8.73279 47.7718 8.83881 47.8513 8.9625 47.8955C9.08177 47.9396 9.23637 47.9617 9.4219 47.9617C9.60743 47.9617 9.75763 47.9396 9.88131 47.8955C10.0006 47.8513 10.1066 47.7718 10.1994 47.6569C10.2921 47.5421 10.3584 47.3742 10.4026 47.1622C10.4423 46.9502 10.4644 46.6807 10.4644 46.3538C10.4644 46.0269 10.4423 45.7575 10.4026 45.5454C10.3584 45.3334 10.2921 45.1699 10.1994 45.0551C10.1066 44.9402 10.0006 44.8563 9.88131 44.8121C9.75763 44.768 9.60743 44.7459 9.4219 44.7459ZM9.4219 47.2373C9.36006 47.2373 9.31147 47.2196 9.28497 47.1754C9.25404 47.1357 9.23196 47.0562 9.22312 46.9325C9.20987 46.8132 9.20545 46.6188 9.20545 46.3538C9.20545 46.0888 9.20987 45.8988 9.22312 45.7751C9.23196 45.6559 9.25404 45.5763 9.28497 45.5322C9.31147 45.4924 9.36006 45.4703 9.4219 45.4703C9.48375 45.4703 9.52792 45.4924 9.55884 45.5322C9.58535 45.5763 9.60743 45.6559 9.62069 45.7751C9.62952 45.8988 9.63836 46.0888 9.63836 46.3538C9.63836 46.6188 9.62952 46.8132 9.62069 46.9325C9.60743 47.0562 9.58535 47.1357 9.55884 47.1754C9.52792 47.2196 9.48375 47.2373 9.4219 47.2373ZM12.4827 47.9617C12.8272 47.9617 13.0834 47.8911 13.2425 47.7453C13.4015 47.6039 13.481 47.3654 13.481 47.0297V44.9314C13.481 44.8386 13.4324 44.7901 13.3396 44.7901H12.8096C12.7124 44.7901 12.6682 44.8386 12.6682 44.9314V46.9148C12.6682 47.0297 12.655 47.1092 12.6285 47.1534C12.6019 47.1975 12.5534 47.2196 12.4827 47.2196C12.412 47.2196 12.3634 47.1975 12.3369 47.1534C12.3104 47.1092 12.2971 47.0297 12.2971 46.9148V44.9314C12.2971 44.8386 12.2486 44.7901 12.1558 44.7901H11.6257C11.5285 44.7901 11.4843 44.8386 11.4843 44.9314V47.0297C11.4843 47.3654 11.5639 47.6039 11.7229 47.7453C11.8819 47.8911 12.1337 47.9617 12.4827 47.9617ZM15.3372 46.3096V45.5233H15.4609C15.5757 45.5233 15.6508 45.5543 15.6862 45.6073C15.7215 45.6603 15.7392 45.7663 15.7392 45.9165C15.7392 46.0711 15.7215 46.1771 15.6862 46.2301C15.6508 46.2831 15.5757 46.3096 15.4609 46.3096H15.3372ZM14.6657 44.7901C14.5686 44.7901 14.5244 44.8386 14.5244 44.9314V47.7762C14.5244 47.8734 14.5686 47.9176 14.6657 47.9176H15.1958C15.2886 47.9176 15.3372 47.8734 15.3372 47.7762V46.9987H15.3814L15.7038 47.7939C15.7215 47.8469 15.748 47.8778 15.7745 47.8955C15.801 47.9131 15.8408 47.9176 15.8982 47.9176H16.4371C16.552 47.9176 16.5829 47.8601 16.5299 47.7409L16.1323 46.8574C16.4194 46.716 16.5652 46.4024 16.5652 45.9165C16.5652 45.488 16.4813 45.192 16.3178 45.033C16.1544 44.874 15.8673 44.7901 15.4609 44.7901H14.6657ZM19.2565 47.065C19.2565 46.8486 19.2123 46.6719 19.1284 46.5305C19.04 46.3936 18.8943 46.2478 18.6911 46.0888C18.4658 45.9209 18.3553 45.7707 18.3553 45.647C18.3553 45.5852 18.373 45.5366 18.4083 45.5101C18.4437 45.4836 18.5055 45.4703 18.5983 45.4703C18.7176 45.4703 18.8324 45.4836 18.9384 45.5101C19.0577 45.5366 19.1195 45.5012 19.1195 45.4041V44.9623C19.1195 44.9093 19.1063 44.874 19.0842 44.8475C19.0621 44.821 19.0268 44.8033 18.9738 44.7901C18.8545 44.7635 18.6866 44.7459 18.4746 44.7459C18.1212 44.7459 17.8694 44.8166 17.7236 44.9535C17.5779 45.0904 17.5072 45.3157 17.5072 45.6294C17.5072 45.8767 17.5558 46.0799 17.653 46.2301C17.7501 46.3803 17.8827 46.5172 18.0594 46.6409C18.2096 46.747 18.3023 46.8265 18.3465 46.8751C18.3863 46.9236 18.4083 46.9767 18.4083 47.0385C18.4083 47.171 18.2891 47.2373 18.0549 47.2373C17.9092 47.2373 17.7855 47.224 17.6839 47.1887C17.5602 47.1534 17.5028 47.1887 17.5028 47.2947V47.7232C17.5028 47.7762 17.5116 47.816 17.5337 47.838C17.5558 47.8601 17.5955 47.8778 17.6574 47.8955C17.8076 47.9396 18.0108 47.9617 18.2758 47.9617C18.5585 47.9617 18.7927 47.8911 18.9782 47.7453C19.1637 47.5995 19.2565 47.3742 19.2565 47.065Z" fill="black"/>
<path d="M64.1484 47.171C64.2146 47.171 64.2632 47.1313 64.2986 47.0517L64.5945 46.3494V47.7762C64.5945 47.8734 64.6387 47.9175 64.7359 47.9175H65.2483C65.3411 47.9175 65.3896 47.8734 65.3896 47.7762V44.9314C65.3896 44.8386 65.3411 44.79 65.2483 44.79H64.7756C64.6785 44.79 64.6166 44.8298 64.5857 44.9049L64.1484 45.9209L63.711 44.9049C63.6757 44.8298 63.6139 44.79 63.5211 44.79H63.0484C62.9513 44.79 62.9071 44.8386 62.9071 44.9314V47.7762C62.9071 47.8734 62.9513 47.9175 63.0484 47.9175H63.5609C63.6536 47.9175 63.7022 47.8734 63.7022 47.7762V46.3494L63.9982 47.0517C64.0291 47.1313 64.0777 47.171 64.1484 47.171ZM66.4607 47.7762C66.4607 47.8734 66.5048 47.9175 66.602 47.9175H67.1321C67.2249 47.9175 67.2735 47.8734 67.2735 47.7762V44.9314C67.2735 44.8386 67.2249 44.79 67.1321 44.79H66.602C66.5048 44.79 66.4607 44.8386 66.4607 44.9314V47.7762ZM70.4201 44.9314C70.4201 44.8386 70.3715 44.79 70.2788 44.79H69.7752C69.678 44.79 69.6338 44.8386 69.6338 44.9314V46.1594L69.1303 44.9093C69.0949 44.8298 69.0331 44.79 68.9403 44.79H68.4853C68.3881 44.79 68.344 44.8386 68.344 44.9314V47.7762C68.344 47.8734 68.3881 47.9175 68.4853 47.9175H68.9889C69.0817 47.9175 69.1303 47.8734 69.1303 47.7762V46.5482L69.6338 47.7983C69.6648 47.8778 69.7266 47.9175 69.8238 47.9175H70.2788C70.3715 47.9175 70.4201 47.8734 70.4201 47.7762V44.9314ZM72.4639 47.9617C72.8084 47.9617 73.0646 47.891 73.2237 47.7453C73.3827 47.6039 73.4622 47.3654 73.4622 47.0297V44.9314C73.4622 44.8386 73.4136 44.79 73.3208 44.79H72.7908C72.6936 44.79 72.6494 44.8386 72.6494 44.9314V46.9148C72.6494 47.0297 72.6362 47.1092 72.6096 47.1533C72.5831 47.1975 72.5346 47.2196 72.4639 47.2196C72.3932 47.2196 72.3446 47.1975 72.3181 47.1533C72.2916 47.1092 72.2783 47.0297 72.2783 46.9148V44.9314C72.2783 44.8386 72.2298 44.79 72.137 44.79H71.6069C71.5097 44.79 71.4655 44.8386 71.4655 44.9314V47.0297C71.4655 47.3654 71.5451 47.6039 71.7041 47.7453C71.8631 47.891 72.1149 47.9617 72.4639 47.9617ZM74.4172 45.3908C74.4172 45.488 74.4614 45.5322 74.5586 45.5322H74.8678V47.7762C74.8678 47.8734 74.912 47.9175 75.0092 47.9175H75.5392C75.632 47.9175 75.6806 47.8734 75.6806 47.7762V45.5322H75.9898C76.0826 45.5322 76.1312 45.488 76.1312 45.3908V44.9314C76.1312 44.8386 76.0826 44.79 75.9898 44.79H74.5586C74.4614 44.79 74.4172 44.8386 74.4172 44.9314V45.3908ZM78.5898 46.6851C78.6826 46.6851 78.7312 46.6409 78.7312 46.5437V46.1108C78.7312 46.0181 78.6826 45.9695 78.5898 45.9695H77.9007V45.5322H78.634C78.7268 45.5322 78.7754 45.488 78.7754 45.3908V44.9314C78.7754 44.8386 78.7268 44.79 78.634 44.79H77.2381C77.1409 44.79 77.0968 44.8386 77.0968 44.9314V47.7762C77.0968 47.8734 77.1409 47.9175 77.2381 47.9175H78.6517C78.7444 47.9175 78.793 47.8734 78.793 47.7762V47.3168C78.793 47.224 78.7444 47.1754 78.6517 47.1754H77.9007V46.6851H78.5898ZM81.5139 47.065C81.5139 46.8485 81.4698 46.6718 81.3858 46.5305C81.2975 46.3936 81.1517 46.2478 80.9485 46.0888C80.7232 45.9209 80.6128 45.7707 80.6128 45.647C80.6128 45.5852 80.6305 45.5366 80.6658 45.5101C80.7012 45.4836 80.763 45.4703 80.8558 45.4703C80.975 45.4703 81.0899 45.4836 81.1959 45.5101C81.3152 45.5366 81.377 45.5012 81.377 45.4041V44.9623C81.377 44.9093 81.3638 44.874 81.3417 44.8475C81.3196 44.821 81.2842 44.8033 81.2312 44.79C81.112 44.7635 80.9441 44.7459 80.7321 44.7459C80.3787 44.7459 80.1269 44.8165 79.9811 44.9535C79.8353 45.0904 79.7647 45.3157 79.7647 45.6293C79.7647 45.8767 79.8133 46.0799 79.9104 46.2301C80.0076 46.3803 80.1401 46.5172 80.3168 46.6409C80.467 46.7469 80.5598 46.8265 80.604 46.875C80.6437 46.9236 80.6658 46.9766 80.6658 47.0385C80.6658 47.171 80.5465 47.2373 80.3124 47.2373C80.1666 47.2373 80.043 47.224 79.9414 47.1887C79.8177 47.1533 79.7602 47.1887 79.7602 47.2947V47.7232C79.7602 47.7762 79.7691 47.8159 79.7912 47.838C79.8133 47.8601 79.853 47.8778 79.9149 47.8955C80.065 47.9396 80.2682 47.9617 80.5333 47.9617C80.816 47.9617 81.0501 47.891 81.2357 47.7453C81.4212 47.5995 81.5139 47.3742 81.5139 47.065Z" fill="black"/>
<path d="M92.7034 47.065C92.7034 46.8486 92.6593 46.6719 92.5753 46.5305C92.487 46.3936 92.3412 46.2478 92.138 46.0888C91.9127 45.9209 91.8023 45.7707 91.8023 45.647C91.8023 45.5852 91.82 45.5366 91.8553 45.5101C91.8906 45.4836 91.9525 45.4703 92.0452 45.4703C92.1645 45.4703 92.2794 45.4836 92.3854 45.5101C92.5047 45.5366 92.5665 45.5012 92.5665 45.4041V44.9623C92.5665 44.9093 92.5532 44.874 92.5312 44.8475C92.5091 44.821 92.4737 44.8033 92.4207 44.7901C92.3015 44.7635 92.1336 44.7459 91.9216 44.7459C91.5682 44.7459 91.3164 44.8166 91.1706 44.9535C91.0248 45.0904 90.9542 45.3157 90.9542 45.6294C90.9542 45.8767 91.0027 46.0799 91.0999 46.2301C91.1971 46.3803 91.3296 46.5172 91.5063 46.6409C91.6565 46.747 91.7493 46.8265 91.7935 46.8751C91.8332 46.9236 91.8553 46.9767 91.8553 47.0385C91.8553 47.171 91.736 47.2373 91.5019 47.2373C91.3561 47.2373 91.2324 47.224 91.1308 47.1887C91.0072 47.1534 90.9497 47.1887 90.9497 47.2947V47.7232C90.9497 47.7762 90.9586 47.816 90.9807 47.838C91.0027 47.8601 91.0425 47.8778 91.1043 47.8955C91.2545 47.9396 91.4577 47.9617 91.7228 47.9617C92.0055 47.9617 92.2396 47.8911 92.4251 47.7453C92.6107 47.5995 92.7034 47.3742 92.7034 47.065ZM95.1817 46.6851C95.2745 46.6851 95.3231 46.6409 95.3231 46.5438V46.1108C95.3231 46.0181 95.2745 45.9695 95.1817 45.9695H94.4926V45.5322H95.2259C95.3186 45.5322 95.3672 45.488 95.3672 45.3908V44.9314C95.3672 44.8386 95.3186 44.7901 95.2259 44.7901H93.83C93.7328 44.7901 93.6886 44.8386 93.6886 44.9314V47.7762C93.6886 47.8734 93.7328 47.9176 93.83 47.9176H95.2435C95.3363 47.9176 95.3849 47.8734 95.3849 47.7762V47.3168C95.3849 47.224 95.3363 47.1754 95.2435 47.1754H94.4926V46.6851H95.1817ZM97.6386 47.2284C97.4972 47.2284 97.3956 47.2064 97.3338 47.1622C97.2675 47.118 97.2189 47.0385 97.1924 46.9148C97.1659 46.7911 97.1527 46.6012 97.1527 46.3406C97.1527 45.9783 97.1792 45.7442 97.241 45.6382C97.2985 45.5322 97.4266 45.4792 97.6253 45.4792C97.7137 45.4792 97.802 45.488 97.886 45.5057C97.992 45.5233 98.045 45.4836 98.045 45.3864V44.9579C98.045 44.8607 97.9964 44.8033 97.9036 44.7901C97.7358 44.7635 97.59 44.7459 97.4619 44.7459C97.241 44.7459 97.0643 44.768 96.9318 44.8121C96.7949 44.8563 96.68 44.9358 96.5828 45.0551C96.4857 45.1744 96.4194 45.3378 96.3841 45.541C96.3443 45.7442 96.3266 46.0137 96.3266 46.3406C96.3266 46.6763 96.3443 46.9502 96.3841 47.1578C96.4238 47.3698 96.4945 47.5332 96.5917 47.6525C96.6889 47.7762 96.8037 47.8557 96.9407 47.8999C97.0732 47.9441 97.2543 47.9617 97.4752 47.9617C97.6342 47.9617 97.7888 47.9485 97.9301 47.9131C98.0185 47.8955 98.0671 47.838 98.0671 47.7453V47.3212C98.0671 47.224 98.0141 47.1843 97.9081 47.2019C97.8241 47.2196 97.7358 47.2284 97.6386 47.2284ZM99.9948 44.7459C99.8093 44.7459 99.6547 44.768 99.5354 44.8121C99.4117 44.8563 99.3057 44.9402 99.213 45.0551C99.1202 45.1699 99.0539 45.3334 99.0142 45.5454C98.97 45.7575 98.9523 46.0269 98.9523 46.3538C98.9523 46.6807 98.97 46.9502 99.0142 47.1622C99.0539 47.3742 99.1202 47.5421 99.213 47.6569C99.3057 47.7718 99.4117 47.8513 99.5354 47.8955C99.6547 47.9396 99.8093 47.9617 99.9948 47.9617C100.18 47.9617 100.331 47.9396 100.454 47.8955C100.574 47.8513 100.68 47.7718 100.772 47.6569C100.865 47.5421 100.931 47.3742 100.975 47.1622C101.015 46.9502 101.037 46.6807 101.037 46.3538C101.037 46.0269 101.015 45.7575 100.975 45.5454C100.931 45.3334 100.865 45.1699 100.772 45.0551C100.68 44.9402 100.574 44.8563 100.454 44.8121C100.331 44.768 100.18 44.7459 99.9948 44.7459ZM99.9948 47.2373C99.933 47.2373 99.8844 47.2196 99.8579 47.1754C99.827 47.1357 99.8049 47.0562 99.7961 46.9325C99.7828 46.8132 99.7784 46.6188 99.7784 46.3538C99.7784 46.0888 99.7828 45.8988 99.7961 45.7751C99.8049 45.6559 99.827 45.5763 99.8579 45.5322C99.8844 45.4924 99.933 45.4703 99.9948 45.4703C100.057 45.4703 100.101 45.4924 100.132 45.5322C100.158 45.5763 100.18 45.6559 100.194 45.7751C100.202 45.8988 100.211 46.0888 100.211 46.3538C100.211 46.6188 100.202 46.8132 100.194 46.9325C100.18 47.0562 100.158 47.1357 100.132 47.1754C100.101 47.2196 100.057 47.2373 99.9948 47.2373ZM104.142 44.9314C104.142 44.8386 104.094 44.7901 104.001 44.7901H103.497C103.4 44.7901 103.356 44.8386 103.356 44.9314V46.1594L102.852 44.9093C102.817 44.8298 102.755 44.7901 102.662 44.7901H102.207C102.11 44.7901 102.066 44.8386 102.066 44.9314V47.7762C102.066 47.8734 102.11 47.9176 102.207 47.9176H102.711C102.804 47.9176 102.852 47.8734 102.852 47.7762V46.5482L103.356 47.7983C103.387 47.8778 103.449 47.9176 103.546 47.9176H104.001C104.094 47.9176 104.142 47.8734 104.142 47.7762V44.9314ZM106.098 47.9176C106.376 47.9176 106.597 47.8734 106.76 47.7806C106.919 47.6923 107.043 47.5332 107.123 47.3035C107.202 47.0738 107.246 46.7602 107.246 46.3538C107.246 46.049 107.224 45.7972 107.18 45.594C107.136 45.3908 107.061 45.2318 106.963 45.1125C106.862 44.9977 106.743 44.9137 106.601 44.8651C106.46 44.8166 106.288 44.7901 106.08 44.7901H105.338C105.241 44.7901 105.197 44.8386 105.197 44.9314V47.7762C105.197 47.8734 105.241 47.9176 105.338 47.9176H106.098ZM106.08 45.5233C106.168 45.5233 106.235 45.5454 106.279 45.5852C106.323 45.6249 106.358 45.7044 106.385 45.8237C106.407 45.9474 106.42 46.1241 106.42 46.3538C106.42 46.6984 106.398 46.9192 106.354 47.0252C106.31 47.1313 106.221 47.1843 106.098 47.1843H106.009V45.5233H106.08ZM109.751 46.6851C109.844 46.6851 109.892 46.6409 109.892 46.5438V46.1108C109.892 46.0181 109.844 45.9695 109.751 45.9695H109.062V45.5322H109.795C109.888 45.5322 109.937 45.488 109.937 45.3908V44.9314C109.937 44.8386 109.888 44.7901 109.795 44.7901H108.399C108.302 44.7901 108.258 44.8386 108.258 44.9314V47.7762C108.258 47.8734 108.302 47.9176 108.399 47.9176H109.813C109.906 47.9176 109.954 47.8734 109.954 47.7762V47.3168C109.954 47.224 109.906 47.1754 109.813 47.1754H109.062V46.6851H109.751ZM112.675 47.065C112.675 46.8486 112.631 46.6719 112.547 46.5305C112.459 46.3936 112.313 46.2478 112.11 46.0888C111.884 45.9209 111.774 45.7707 111.774 45.647C111.774 45.5852 111.792 45.5366 111.827 45.5101C111.862 45.4836 111.924 45.4703 112.017 45.4703C112.136 45.4703 112.251 45.4836 112.357 45.5101C112.476 45.5366 112.538 45.5012 112.538 45.4041V44.9623C112.538 44.9093 112.525 44.874 112.503 44.8475C112.481 44.821 112.445 44.8033 112.392 44.7901C112.273 44.7635 112.105 44.7459 111.893 44.7459C111.54 44.7459 111.288 44.8166 111.142 44.9535C110.997 45.0904 110.926 45.3157 110.926 45.6294C110.926 45.8767 110.974 46.0799 111.072 46.2301C111.169 46.3803 111.301 46.5172 111.478 46.6409C111.628 46.747 111.721 46.8265 111.765 46.8751C111.805 46.9236 111.827 46.9767 111.827 47.0385C111.827 47.171 111.708 47.2373 111.474 47.2373C111.328 47.2373 111.204 47.224 111.103 47.1887C110.979 47.1534 110.921 47.1887 110.921 47.2947V47.7232C110.921 47.7762 110.93 47.816 110.952 47.838C110.974 47.8601 111.014 47.8778 111.076 47.8955C111.226 47.9396 111.429 47.9617 111.694 47.9617C111.977 47.9617 112.211 47.8911 112.397 47.7453C112.582 47.5995 112.675 47.3742 112.675 47.065Z" fill="black"/>
<path d="M42.2516 6.32744V4.59944H42.4316C42.6656 4.59944 42.8186 4.65344 42.8816 4.76144C42.9446 4.86944 42.9806 5.10344 42.9806 5.46344C42.9806 5.82344 42.9446 6.05744 42.8816 6.16544C42.8186 6.27344 42.6656 6.32744 42.4316 6.32744H42.2516ZM41.9636 9.47744C42.1526 9.47744 42.2516 9.38744 42.2516 9.18944V7.80344H42.4316C43.2596 7.80344 43.8356 7.64144 44.1686 7.30844C44.4926 6.98444 44.6636 6.36344 44.6636 5.46344C44.6636 4.55444 44.4926 3.93344 44.1686 3.60044C43.8446 3.27644 43.2596 3.10544 42.4316 3.10544H40.8836C40.6856 3.10544 40.5956 3.20444 40.5956 3.39344V9.18944C40.5956 9.38744 40.6856 9.47744 40.8836 9.47744H41.9636ZM46.9539 3.39344C46.9539 3.20444 46.8549 3.10544 46.6659 3.10544H45.5859C45.3879 3.10544 45.2979 3.20444 45.2979 3.39344V9.18944C45.2979 9.38744 45.3879 9.47744 45.5859 9.47744H48.1059C48.2949 9.47744 48.3939 9.38744 48.3939 9.18944V8.23544C48.3939 8.04644 48.2949 7.94744 48.1059 7.94744H46.9539V3.39344ZM51.0669 9.56744C51.7689 9.56744 52.2909 9.42344 52.6149 9.12644C52.9389 8.83844 53.1009 8.35244 53.1009 7.66844V3.39344C53.1009 3.20444 53.0019 3.10544 52.8129 3.10544H51.7329C51.5349 3.10544 51.4449 3.20444 51.4449 3.39344V7.43444C51.4449 7.66844 51.4179 7.83044 51.3639 7.92044C51.3099 8.01044 51.2109 8.05544 51.0669 8.05544C50.9229 8.05544 50.8239 8.01044 50.7699 7.92044C50.7159 7.83044 50.6889 7.66844 50.6889 7.43444V3.39344C50.6889 3.20444 50.5899 3.10544 50.4009 3.10544H49.3209C49.1229 3.10544 49.0329 3.20444 49.0329 3.39344V7.66844C49.0329 8.35244 49.1949 8.83844 49.5189 9.12644C49.8429 9.42344 50.3559 9.56744 51.0669 9.56744ZM57.3065 7.74044C57.3065 7.29944 57.2165 6.93944 57.0455 6.65144C56.8655 6.37244 56.5685 6.07544 56.1545 5.75144C55.6955 5.40944 55.4705 5.10344 55.4705 4.85144C55.4705 4.72544 55.5065 4.62644 55.5785 4.57244C55.6505 4.51844 55.7765 4.49144 55.9655 4.49144C56.2085 4.49144 56.4425 4.51844 56.6585 4.57244C56.9015 4.62644 57.0275 4.55444 57.0275 4.35644V3.45644C57.0275 3.34844 57.0005 3.27644 56.9555 3.22244C56.9105 3.16844 56.8385 3.13244 56.7305 3.10544C56.4875 3.05144 56.1455 3.01544 55.7135 3.01544C54.9935 3.01544 54.4805 3.15944 54.1835 3.43844C53.8865 3.71744 53.7425 4.17644 53.7425 4.81544C53.7425 5.31944 53.8415 5.73344 54.0395 6.03944C54.2375 6.34544 54.5075 6.62444 54.8675 6.87644C55.1735 7.09244 55.3625 7.25444 55.4525 7.35344C55.5335 7.45244 55.5785 7.56044 55.5785 7.68644C55.5785 7.95644 55.3355 8.09144 54.8585 8.09144C54.5615 8.09144 54.3095 8.06444 54.1025 7.99244C53.8505 7.92044 53.7335 7.99244 53.7335 8.20844V9.08144C53.7335 9.18944 53.7515 9.27044 53.7965 9.31544C53.8415 9.36044 53.9225 9.39644 54.0485 9.43244C54.3545 9.52244 54.7685 9.56744 55.3085 9.56744C55.8845 9.56744 56.3615 9.42344 56.7395 9.12644C57.1175 8.82944 57.3065 8.37044 57.3065 7.74044ZM62.8936 9.00944C63.4246 8.55944 63.6946 7.64144 63.6946 6.23744C63.6946 5.58944 63.6496 5.05844 63.5686 4.63544C63.4786 4.21244 63.3436 3.87944 63.1636 3.64544C62.9836 3.41144 62.7676 3.24944 62.5156 3.15944C62.2636 3.06944 61.9576 3.01544 61.5886 3.01544C61.2106 3.01544 60.9046 3.06944 60.6526 3.15944C60.4006 3.24944 60.1846 3.41144 60.0046 3.64544C59.8246 3.87944 59.6896 4.21244 59.6086 4.63544C59.5186 5.05844 59.4826 5.58944 59.4826 6.23744C59.4826 7.02944 59.5456 7.65944 59.6896 8.12744C59.8336 8.59544 60.0316 8.92844 60.2926 9.12644C60.5446 9.32444 60.8866 9.43244 61.3186 9.45044C61.9396 10.0264 62.5786 10.3144 63.2446 10.3144C63.4246 10.3144 63.5146 10.2154 63.5146 10.0084V9.21644C63.5146 9.13544 63.4966 9.07244 63.4606 9.03644C63.4246 9.00044 63.3616 8.99144 63.2896 8.99144C63.2716 8.99144 63.2356 9.00044 63.1816 9.00944C63.1276 9.01844 63.0736 9.01844 63.0286 9.01844C62.9746 9.01844 62.9296 9.01844 62.8936 9.00944ZM61.5886 7.98344C61.4896 7.98344 61.4176 7.96544 61.3636 7.92944C61.3096 7.89344 61.2736 7.80344 61.2376 7.66844C61.2016 7.53344 61.1836 7.36244 61.1746 7.14644C61.1656 6.93944 61.1656 6.63344 61.1656 6.23744C61.1656 5.84144 61.1656 5.54444 61.1746 5.32844C61.1836 5.12144 61.2016 4.95044 61.2376 4.81544C61.2736 4.68044 61.3096 4.59044 61.3636 4.55444C61.4176 4.51844 61.4896 4.49144 61.5886 4.49144C61.6786 4.49144 61.7506 4.51844 61.8046 4.55444C61.8586 4.59044 61.8946 4.68044 61.9306 4.81544C61.9666 4.95044 61.9846 5.12144 61.9936 5.32844C62.0026 5.54444 62.0116 5.84144 62.0116 6.23744C62.0116 6.63344 62.0026 6.93944 61.9936 7.14644C61.9846 7.36244 61.9666 7.53344 61.9306 7.66844C61.8946 7.80344 61.8586 7.89344 61.8046 7.92944C61.7506 7.96544 61.6786 7.98344 61.5886 7.98344ZM66.4043 9.56744C67.1063 9.56744 67.6283 9.42344 67.9523 9.12644C68.2763 8.83844 68.4383 8.35244 68.4383 7.66844V3.39344C68.4383 3.20444 68.3393 3.10544 68.1503 3.10544H67.0703C66.8723 3.10544 66.7823 3.20444 66.7823 3.39344V7.43444C66.7823 7.66844 66.7553 7.83044 66.7013 7.92044C66.6473 8.01044 66.5483 8.05544 66.4043 8.05544C66.2603 8.05544 66.1613 8.01044 66.1073 7.92044C66.0533 7.83044 66.0263 7.66844 66.0263 7.43444V3.39344C66.0263 3.20444 65.9273 3.10544 65.7383 3.10544H64.6583C64.4603 3.10544 64.3703 3.20444 64.3703 3.39344V7.66844C64.3703 8.35244 64.5323 8.83844 64.8563 9.12644C65.1803 9.42344 65.6933 9.56744 66.4043 9.56744ZM72.2029 6.96644C72.3919 6.96644 72.4909 6.87644 72.4909 6.67844V5.79644C72.4909 5.60744 72.3919 5.50844 72.2029 5.50844H70.7989V4.61744H72.2929C72.4819 4.61744 72.5809 4.52744 72.5809 4.32944V3.39344C72.5809 3.20444 72.4819 3.10544 72.2929 3.10544H69.4489C69.2509 3.10544 69.1609 3.20444 69.1609 3.39344V9.18944C69.1609 9.38744 69.2509 9.47744 69.4489 9.47744H72.3289C72.5179 9.47744 72.6169 9.38744 72.6169 9.18944V8.25344C72.6169 8.06444 72.5179 7.96544 72.3289 7.96544H70.7989V6.96644H72.2029Z" fill="black"/>
<rect x="1.25488" y="25.8549" width="0.753144" height="2.26825" fill="black"/>
<rect x="30.6279" y="26.1069" width="0.753144" height="2.26825" fill="black"/>
<rect x="60.0001" y="26.359" width="0.753144" height="2.26825" fill="black"/>
<rect x="89.373" y="26.1069" width="0.753144" height="2.26825" fill="black"/>
<rect x="22.8447" y="25.8549" width="0.753144" height="2.26825" fill="black"/>
<rect x="52.2176" y="26.1069" width="0.753144" height="2.26825" fill="black"/>
<rect x="81.5898" y="26.359" width="0.753144" height="2.26825" fill="black"/>
<rect x="110.963" y="26.1069" width="0.753144" height="2.26825" fill="black"/>
</g>
<defs>
<filter id="filter0_d_2385_1729" x="-6" y="8.26162" width="37.1048" height="37.2028" filterUnits="userSpaceOnUse" color-interpolation-filters="sRGB">
<feFlood flood-opacity="0" result="BackgroundImageFix"/>
<feColorMatrix in="SourceAlpha" type="matrix" values="0 0 0 0 0 0 0 0 0 0 0 0 0 0 0 0 0 0 127 0" result="hardAlpha"/>
<feOffset/>
<feGaussianBlur stdDeviation="3"/>
<feColorMatrix type="matrix" values="0 0 0 0 0.678431 0 0 0 0 0.705882 0 0 0 0 0.705882 0 0 0 0.24 0"/>
<feBlend mode="normal" in2="BackgroundImageFix" result="effect1_dropShadow_2385_1729"/>
<feBlend mode="normal" in="SourceGraphic" in2="effect1_dropShadow_2385_1729" result="shape"/>
</filter>
<filter id="filter1_d_2385_1729" x="-1" y="25.613" width="27.1048" height="2.5" filterUnits="userSpaceOnUse" color-interpolation-filters="sRGB">
<feFlood flood-opacity="0" result="BackgroundImageFix"/>
<feColorMatrix in="SourceAlpha" type="matrix" values="0 0 0 0 0 0 0 0 0 0 0 0 0 0 0 0 0 0 127 0" result="hardAlpha"/>
<feOffset/>
<feGaussianBlur stdDeviation="0.5"/>
<feColorMatrix type="matrix" values="0 0 0 0 0 0 0 0 0 0 0 0 0 0 0 0 0 0 1 0"/>
<feBlend mode="normal" in2="BackgroundImageFix" result="effect1_dropShadow_2385_1729"/>
<feBlend mode="normal" in="SourceGraphic" in2="effect1_dropShadow_2385_1729" result="shape"/>
</filter>
<filter id="filter2_d_2385_1729" x="23.373" y="8.51365" width="37.1048" height="37.2028" filterUnits="userSpaceOnUse" color-interpolation-filters="sRGB">
<feFlood flood-opacity="0" result="BackgroundImageFix"/>
<feColorMatrix in="SourceAlpha" type="matrix" values="0 0 0 0 0 0 0 0 0 0 0 0 0 0 0 0 0 0 127 0" result="hardAlpha"/>
<feOffset/>
<feGaussianBlur stdDeviation="3"/>
<feColorMatrix type="matrix" values="0 0 0 0 0.678431 0 0 0 0 0.705882 0 0 0 0 0.705882 0 0 0 0.24 0"/>
<feBlend mode="normal" in2="BackgroundImageFix" result="effect1_dropShadow_2385_1729"/>
<feBlend mode="normal" in="SourceGraphic" in2="effect1_dropShadow_2385_1729" result="shape"/>
</filter>
<filter id="filter3_d_2385_1729" x="28.373" y="25.865" width="27.1048" height="2.5" filterUnits="userSpaceOnUse" color-interpolation-filters="sRGB">
<feFlood flood-opacity="0" result="BackgroundImageFix"/>
<feColorMatrix in="SourceAlpha" type="matrix" values="0 0 0 0 0 0 0 0 0 0 0 0 0 0 0 0 0 0 127 0" result="hardAlpha"/>
<feOffset/>
<feGaussianBlur stdDeviation="0.5"/>
<feColorMatrix type="matrix" values="0 0 0 0 0 0 0 0 0 0 0 0 0 0 0 0 0 0 1 0"/>
<feBlend mode="normal" in2="BackgroundImageFix" result="effect1_dropShadow_2385_1729"/>
<feBlend mode="normal" in="SourceGraphic" in2="effect1_dropShadow_2385_1729" result="shape"/>
</filter>
<filter id="filter4_d_2385_1729" x="52.7452" y="8.76568" width="37.1048" height="37.2028" filterUnits="userSpaceOnUse" color-interpolation-filters="sRGB">
<feFlood flood-opacity="0" result="BackgroundImageFix"/>
<feColorMatrix in="SourceAlpha" type="matrix" values="0 0 0 0 0 0 0 0 0 0 0 0 0 0 0 0 0 0 127 0" result="hardAlpha"/>
<feOffset/>
<feGaussianBlur stdDeviation="3"/>
<feColorMatrix type="matrix" values="0 0 0 0 0.678431 0 0 0 0 0.705882 0 0 0 0 0.705882 0 0 0 0.24 0"/>
<feBlend mode="normal" in2="BackgroundImageFix" result="effect1_dropShadow_2385_1729"/>
<feBlend mode="normal" in="SourceGraphic" in2="effect1_dropShadow_2385_1729" result="shape"/>
</filter>
<filter id="filter5_d_2385_1729" x="57.7452" y="26.1171" width="27.1048" height="2.5" filterUnits="userSpaceOnUse" color-interpolation-filters="sRGB">
<feFlood flood-opacity="0" result="BackgroundImageFix"/>
<feColorMatrix in="SourceAlpha" type="matrix" values="0 0 0 0 0 0 0 0 0 0 0 0 0 0 0 0 0 0 127 0" result="hardAlpha"/>
<feOffset/>
<feGaussianBlur stdDeviation="0.5"/>
<feColorMatrix type="matrix" values="0 0 0 0 0 0 0 0 0 0 0 0 0 0 0 0 0 0 1 0"/>
<feBlend mode="normal" in2="BackgroundImageFix" result="effect1_dropShadow_2385_1729"/>
<feBlend mode="normal" in="SourceGraphic" in2="effect1_dropShadow_2385_1729" result="shape"/>
</filter>
<filter id="filter6_d_2385_1729" x="82.1182" y="8.51365" width="37.1048" height="37.2028" filterUnits="userSpaceOnUse" color-interpolation-filters="sRGB">
<feFlood flood-opacity="0" result="BackgroundImageFix"/>
<feColorMatrix in="SourceAlpha" type="matrix" values="0 0 0 0 0 0 0 0 0 0 0 0 0 0 0 0 0 0 127 0" result="hardAlpha"/>
<feOffset/>
<feGaussianBlur stdDeviation="3"/>
<feColorMatrix type="matrix" values="0 0 0 0 0.678431 0 0 0 0 0.705882 0 0 0 0 0.705882 0 0 0 0.24 0"/>
<feBlend mode="normal" in2="BackgroundImageFix" result="effect1_dropShadow_2385_1729"/>
<feBlend mode="normal" in="SourceGraphic" in2="effect1_dropShadow_2385_1729" result="shape"/>
</filter>
<filter id="filter7_d_2385_1729" x="87.1182" y="25.865" width="27.1048" height="2.5" filterUnits="userSpaceOnUse" color-interpolation-filters="sRGB">
<feFlood flood-opacity="0" result="BackgroundImageFix"/>
<feColorMatrix in="SourceAlpha" type="matrix" values="0 0 0 0 0 0 0 0 0 0 0 0 0 0 0 0 0 0 127 0" result="hardAlpha"/>
<feOffset/>
<feGaussianBlur stdDeviation="0.5"/>
<feColorMatrix type="matrix" values="0 0 0 0 0 0 0 0 0 0 0 0 0 0 0 0 0 0 1 0"/>
<feBlend mode="normal" in2="BackgroundImageFix" result="effect1_dropShadow_2385_1729"/>
<feBlend mode="normal" in="SourceGraphic" in2="effect1_dropShadow_2385_1729" result="shape"/>
</filter>
<linearGradient id="paint0_linear_2385_1729" x1="0" y1="14.2616" x2="0" y2="39.4644" gradientUnits="userSpaceOnUse">
<stop stop-color="white" stop-opacity="0.5"/>
<stop offset="1" stop-color="#D8D8D8" stop-opacity="0.5"/>
</linearGradient>
<linearGradient id="paint1_linear_2385_1729" x1="29.373" y1="14.5136" x2="29.373" y2="39.7164" gradientUnits="userSpaceOnUse">
<stop stop-color="white" stop-opacity="0.5"/>
<stop offset="1" stop-color="#D8D8D8" stop-opacity="0.5"/>
</linearGradient>
<linearGradient id="paint2_linear_2385_1729" x1="58.7452" y1="14.7657" x2="58.7452" y2="39.9685" gradientUnits="userSpaceOnUse">
<stop stop-color="white" stop-opacity="0.5"/>
<stop offset="1" stop-color="#D8D8D8" stop-opacity="0.5"/>
</linearGradient>
<linearGradient id="paint3_linear_2385_1729" x1="88.1182" y1="14.5136" x2="88.1182" y2="39.7164" gradientUnits="userSpaceOnUse">
<stop stop-color="white" stop-opacity="0.5"/>
<stop offset="1" stop-color="#D8D8D8" stop-opacity="0.5"/>
</linearGradient>
<clipPath id="clip0_2385_1729">
<rect width="114.478" height="47.4401" fill="white" transform="translate(0 0.47744)"/>
</clipPath>
<clipPath id="clip1_2385_1729">
<rect width="25.2791" height="25.2028" fill="white" transform="translate(0 14.2616)"/>
</clipPath>
<clipPath id="clip2_2385_1729">
<rect width="25.2791" height="25.2028" fill="white" transform="translate(29.373 14.5136)"/>
</clipPath>
<clipPath id="clip3_2385_1729">
<rect width="25.2791" height="25.2028" fill="white" transform="translate(58.7452 14.7657)"/>
</clipPath>
<clipPath id="clip4_2385_1729">
<rect width="25.2791" height="25.2028" fill="white" transform="translate(88.1182 14.5136)"/>
</clipPath>
</defs>
</svg>
