<svg width="116" height="48" viewBox="0 0 116 48" fill="none" xmlns="http://www.w3.org/2000/svg">
<g clip-path="url(#clip0_2237_4573)">
<g clip-path="url(#clip1_2237_4573)">
<g filter="url(#filter0_d_2237_4573)">
<rect x="0.760986" y="13.7842" width="25.1048" height="25.2028" rx="3.68115" fill="white"/>
<rect x="0.760986" y="13.7842" width="25.1048" height="25.2028" rx="3.68115" fill="url(#paint0_linear_2237_4573)"/>
</g>
<path d="M12.7424 26.5193C12.7424 29.0894 12.3196 30.9918 11.4741 32.2265C10.6353 33.4612 9.34017 34.0786 7.58875 34.0786C5.89101 34.0786 4.60931 33.4411 3.74367 32.1661C2.88473 30.8911 2.45527 29.0089 2.45527 26.5193C2.45527 23.9224 2.87467 22.0099 3.71347 20.7819C4.55228 19.5472 5.84403 18.9298 7.58875 18.9298C9.28648 18.9298 10.5682 19.574 11.4338 20.8624C12.3062 22.1508 12.7424 24.0364 12.7424 26.5193ZM5.54542 26.5193C5.54542 28.3244 5.69976 29.6195 6.00844 30.4046C6.32383 31.183 6.8506 31.5722 7.58875 31.5722C8.31347 31.5722 8.83689 31.1763 9.15899 30.3845C9.48109 29.5927 9.64214 28.3043 9.64214 26.5193C9.64214 24.7142 9.47773 23.4191 9.14892 22.634C8.82682 21.8421 8.30676 21.4462 7.58875 21.4462C6.85731 21.4462 6.33389 21.8421 6.0185 22.634C5.70311 23.4191 5.54542 24.7142 5.54542 26.5193ZM24.5192 26.5193C24.5192 29.0894 24.0964 30.9918 23.2509 32.2265C22.4121 33.4612 21.117 34.0786 19.3655 34.0786C17.6678 34.0786 16.3861 33.4411 15.5205 32.1661C14.6615 30.8911 14.2321 29.0089 14.2321 26.5193C14.2321 23.9224 14.6515 22.0099 15.4903 20.7819C16.3291 19.5472 17.6208 18.9298 19.3655 18.9298C21.0633 18.9298 22.345 19.574 23.2106 20.8624C24.083 22.1508 24.5192 24.0364 24.5192 26.5193ZM17.3222 26.5193C17.3222 28.3244 17.4766 29.6195 17.7852 30.4046C18.1006 31.183 18.6274 31.5722 19.3655 31.5722C20.0903 31.5722 20.6137 31.1763 20.9358 30.3845C21.2579 29.5927 21.4189 28.3043 21.4189 26.5193C21.4189 24.7142 21.2545 23.4191 20.9257 22.634C20.6036 21.8421 20.0836 21.4462 19.3655 21.4462C18.6341 21.4462 18.1107 21.8421 17.7953 22.634C17.4799 23.4191 17.3222 24.7142 17.3222 26.5193Z" fill="#1D1D1D"/>
<g opacity="0.5" filter="url(#filter1_d_2237_4573)">
<path d="M0.760986 26.3856H25.8658" stroke="#979797" stroke-width="0.5"/>
</g>
</g>
<g clip-path="url(#clip2_2237_4573)">
<g filter="url(#filter2_d_2237_4573)">
<rect x="30.134" y="14.0362" width="25.1048" height="25.2028" rx="3.68115" fill="white"/>
<rect x="30.134" y="14.0362" width="25.1048" height="25.2028" rx="3.68115" fill="url(#paint1_linear_2237_4573)"/>
</g>
<path d="M42.1154 26.7713C42.1154 29.3414 41.6926 31.2438 40.8471 32.4785C40.0083 33.7133 38.7132 34.3306 36.9618 34.3306C35.2641 34.3306 33.9824 33.6931 33.1167 32.4181C32.2578 31.1432 31.8283 29.2609 31.8283 26.7713C31.8283 24.1744 32.2477 22.2619 33.0865 21.0339C33.9253 19.7992 35.2171 19.1818 36.9618 19.1818C38.6595 19.1818 39.9412 19.826 40.8069 21.1144C41.6792 22.4028 42.1154 24.2885 42.1154 26.7713ZM34.9185 26.7713C34.9185 28.5764 35.0728 29.8715 35.3815 30.6567C35.6969 31.4351 36.2236 31.8243 36.9618 31.8243C37.6865 31.8243 38.2099 31.4284 38.532 30.6365C38.8541 29.8447 39.0152 28.5563 39.0152 26.7713C39.0152 24.9662 38.8508 23.6711 38.522 22.886C38.1999 22.0941 37.6798 21.6982 36.9618 21.6982C36.2304 21.6982 35.7069 22.0941 35.3916 22.886C35.0762 23.6711 34.9185 24.9662 34.9185 26.7713ZM53.8922 26.7713C53.8922 29.3414 53.4694 31.2438 52.6239 32.4785C51.7851 33.7133 50.49 34.3306 48.7386 34.3306C47.0409 34.3306 45.7592 33.6931 44.8935 32.4181C44.0346 31.1432 43.6051 29.2609 43.6051 26.7713C43.6051 24.1744 44.0245 22.2619 44.8633 21.0339C45.7021 19.7992 46.9939 19.1818 48.7386 19.1818C50.4363 19.1818 51.718 19.826 52.5837 21.1144C53.456 22.4028 53.8922 24.2885 53.8922 26.7713ZM46.6953 26.7713C46.6953 28.5764 46.8496 29.8715 47.1583 30.6567C47.4737 31.4351 48.0004 31.8243 48.7386 31.8243C49.4633 31.8243 49.9867 31.4284 50.3088 30.6365C50.6309 29.8447 50.792 28.5563 50.792 26.7713C50.792 24.9662 50.6276 23.6711 50.2988 22.886C49.9767 22.0941 49.4566 21.6982 48.7386 21.6982C48.0072 21.6982 47.4837 22.0941 47.1684 22.886C46.853 23.6711 46.6953 24.9662 46.6953 26.7713Z" fill="#1D1D1D"/>
<g opacity="0.5" filter="url(#filter3_d_2237_4573)">
<path d="M30.134 26.6376H55.2388" stroke="#979797" stroke-width="0.5"/>
</g>
</g>
<g clip-path="url(#clip3_2237_4573)">
<g filter="url(#filter4_d_2237_4573)">
<rect x="59.5062" y="14.2882" width="25.1048" height="25.2028" rx="3.68115" fill="white"/>
<rect x="59.5062" y="14.2882" width="25.1048" height="25.2028" rx="3.68115" fill="url(#paint2_linear_2237_4573)"/>
</g>
<path d="M71.4876 27.0233C71.4876 29.5934 71.0648 31.4958 70.2193 32.7306C69.3805 33.9653 68.0854 34.5826 66.334 34.5826C64.6362 34.5826 63.3546 33.9452 62.4889 32.6702C61.63 31.3952 61.2005 29.5129 61.2005 27.0233C61.2005 24.4264 61.6199 22.5139 62.4587 21.2859C63.2975 20.0512 64.5893 19.4339 66.334 19.4339C68.0317 19.4339 69.3134 20.0781 70.1791 21.3665C71.0514 22.6549 71.4876 24.5405 71.4876 27.0233ZM64.2907 27.0233C64.2907 28.8285 64.445 30.1236 64.7537 30.9087C65.0691 31.6871 65.5958 32.0763 66.334 32.0763C67.0587 32.0763 67.5821 31.6804 67.9042 30.8886C68.2263 30.0967 68.3874 28.8083 68.3874 27.0233C68.3874 25.2182 68.223 23.9231 67.8942 23.138C67.5721 22.3462 67.052 21.9503 66.334 21.9503C65.6025 21.9503 65.0791 22.3462 64.7637 23.138C64.4484 23.9231 64.2907 25.2182 64.2907 27.0233ZM83.2644 27.0233C83.2644 29.5934 82.8416 31.4958 81.9961 32.7306C81.1573 33.9653 79.8622 34.5826 78.1108 34.5826C76.413 34.5826 75.1314 33.9452 74.2657 32.6702C73.4068 31.3952 72.9773 29.5129 72.9773 27.0233C72.9773 24.4264 73.3967 22.5139 74.2355 21.2859C75.0743 20.0512 76.3661 19.4339 78.1108 19.4339C79.8085 19.4339 81.0902 20.0781 81.9559 21.3665C82.8282 22.6549 83.2644 24.5405 83.2644 27.0233ZM76.0675 27.0233C76.0675 28.8285 76.2218 30.1236 76.5305 30.9087C76.8459 31.6871 77.3726 32.0763 78.1108 32.0763C78.8355 32.0763 79.3589 31.6804 79.681 30.8886C80.0031 30.0967 80.1642 28.8083 80.1642 27.0233C80.1642 25.2182 79.9998 23.9231 79.671 23.138C79.3489 22.3462 78.8288 21.9503 78.1108 21.9503C77.3794 21.9503 76.8559 22.3462 76.5405 23.138C76.2252 23.9231 76.0675 25.2182 76.0675 27.0233Z" fill="#1D1D1D"/>
<g opacity="0.5" filter="url(#filter5_d_2237_4573)">
<path d="M59.5062 26.8896H84.611" stroke="#979797" stroke-width="0.5"/>
</g>
</g>
<g clip-path="url(#clip4_2237_4573)">
<g filter="url(#filter6_d_2237_4573)">
<rect x="88.8792" y="14.0362" width="25.1048" height="25.2028" rx="3.68115" fill="white"/>
<rect x="88.8792" y="14.0362" width="25.1048" height="25.2028" rx="3.68115" fill="url(#paint3_linear_2237_4573)"/>
</g>
<path d="M100.861 26.7713C100.861 29.3414 100.438 31.2438 99.5922 32.4785C98.7534 33.7133 97.4583 34.3306 95.7069 34.3306C94.0092 34.3306 92.7275 33.6931 91.8618 32.4181C91.0029 31.1432 90.5734 29.2609 90.5734 26.7713C90.5734 24.1744 90.9928 22.2619 91.8316 21.0339C92.6704 19.7992 93.9622 19.1818 95.7069 19.1818C97.4046 19.1818 98.6863 19.826 99.552 21.1144C100.424 22.4028 100.861 24.2885 100.861 26.7713ZM93.6636 26.7713C93.6636 28.5764 93.8179 29.8715 94.1266 30.6567C94.442 31.4351 94.9688 31.8243 95.7069 31.8243C96.4316 31.8243 96.955 31.4284 97.2771 30.6365C97.5993 29.8447 97.7603 28.5563 97.7603 26.7713C97.7603 24.9662 97.5959 23.6711 97.2671 22.886C96.945 22.0941 96.4249 21.6982 95.7069 21.6982C94.9755 21.6982 94.4521 22.0941 94.1367 22.886C93.8213 23.6711 93.6636 24.9662 93.6636 26.7713ZM112.637 26.7713C112.637 29.3414 112.215 31.2438 111.369 32.4785C110.53 33.7133 109.235 34.3306 107.484 34.3306C105.786 34.3306 104.504 33.6931 103.639 32.4181C102.78 31.1432 102.35 29.2609 102.35 26.7713C102.35 24.1744 102.77 22.2619 103.608 21.0339C104.447 19.7992 105.739 19.1818 107.484 19.1818C109.181 19.1818 110.463 19.826 111.329 21.1144C112.201 22.4028 112.637 24.2885 112.637 26.7713ZM105.44 26.7713C105.44 28.5764 105.595 29.8715 105.903 30.6567C106.219 31.4351 106.746 31.8243 107.484 31.8243C108.208 31.8243 108.732 31.4284 109.054 30.6365C109.376 29.8447 109.537 28.5563 109.537 26.7713C109.537 24.9662 109.373 23.6711 109.044 22.886C108.722 22.0941 108.202 21.6982 107.484 21.6982C106.752 21.6982 106.229 22.0941 105.913 22.886C105.598 23.6711 105.44 24.9662 105.44 26.7713Z" fill="#1D1D1D"/>
<g opacity="0.5" filter="url(#filter7_d_2237_4573)">
<path d="M88.8792 26.6376H113.984" stroke="#979797" stroke-width="0.5"/>
</g>
</g>
<path d="M35.6757 47.2988C35.6757 47.3959 35.7198 47.4401 35.817 47.4401H36.3471C36.4399 47.4401 36.4885 47.3959 36.4885 47.2988V44.454C36.4885 44.3612 36.4399 44.3126 36.3471 44.3126H35.817C35.7198 44.3126 35.6757 44.3612 35.6757 44.454V45.4788H35.3046V44.454C35.3046 44.3612 35.256 44.3126 35.1632 44.3126H34.6332C34.536 44.3126 34.4918 44.3612 34.4918 44.454V47.2988C34.4918 47.3959 34.536 47.4401 34.6332 47.4401H35.1632C35.256 47.4401 35.3046 47.3959 35.3046 47.2988V46.2209H35.6757V47.2988ZM39.0376 46.2077C39.1304 46.2077 39.179 46.1635 39.179 46.0663V45.6334C39.179 45.5406 39.1304 45.492 39.0376 45.492H38.3485V45.0547H39.0818C39.1746 45.0547 39.2232 45.0106 39.2232 44.9134V44.454C39.2232 44.3612 39.1746 44.3126 39.0818 44.3126H37.6859C37.5887 44.3126 37.5446 44.3612 37.5446 44.454V47.2988C37.5446 47.3959 37.5887 47.4401 37.6859 47.4401H39.0995C39.1923 47.4401 39.2408 47.3959 39.2408 47.2988V46.8393C39.2408 46.7466 39.1923 46.698 39.0995 46.698H38.3485V46.2077H39.0376ZM41.2158 47.4843C41.5604 47.4843 41.8166 47.4136 41.9756 47.2678C42.1347 47.1265 42.2142 46.8879 42.2142 46.5522V44.454C42.2142 44.3612 42.1656 44.3126 42.0728 44.3126H41.5427C41.4455 44.3126 41.4014 44.3612 41.4014 44.454V46.4374C41.4014 46.5522 41.3881 46.6317 41.3616 46.6759C41.3351 46.7201 41.2865 46.7422 41.2158 46.7422C41.1452 46.7422 41.0966 46.7201 41.0701 46.6759C41.0436 46.6317 41.0303 46.5522 41.0303 46.4374V44.454C41.0303 44.3612 40.9817 44.3126 40.889 44.3126H40.3589C40.2617 44.3126 40.2175 44.3612 40.2175 44.454V46.5522C40.2175 46.8879 40.297 47.1265 40.456 47.2678C40.6151 47.4136 40.8669 47.4843 41.2158 47.4843ZM44.0703 45.8322V45.0459H44.194C44.3089 45.0459 44.384 45.0768 44.4193 45.1298C44.4547 45.1828 44.4723 45.2888 44.4723 45.439C44.4723 45.5936 44.4547 45.6997 44.4193 45.7527C44.384 45.8057 44.3089 45.8322 44.194 45.8322H44.0703ZM43.3989 44.3126C43.3017 44.3126 43.2575 44.3612 43.2575 44.454V47.2988C43.2575 47.3959 43.3017 47.4401 43.3989 47.4401H43.929C44.0217 47.4401 44.0703 47.3959 44.0703 47.2988V46.5213H44.1145L44.437 47.3164C44.4547 47.3694 44.4812 47.4004 44.5077 47.418C44.5342 47.4357 44.5739 47.4401 44.6313 47.4401H45.1703C45.2851 47.4401 45.316 47.3827 45.263 47.2634L44.8655 46.3799C45.1526 46.2386 45.2984 45.9249 45.2984 45.439C45.2984 45.0106 45.2144 44.7146 45.051 44.5556C44.8876 44.3965 44.6004 44.3126 44.194 44.3126H43.3989ZM47.7732 46.2077C47.8659 46.2077 47.9145 46.1635 47.9145 46.0663V45.6334C47.9145 45.5406 47.8659 45.492 47.7732 45.492H47.0841V45.0547H47.8174C47.9101 45.0547 47.9587 45.0106 47.9587 44.9134V44.454C47.9587 44.3612 47.9101 44.3126 47.8174 44.3126H46.4215C46.3243 44.3126 46.2801 44.3612 46.2801 44.454V47.2988C46.2801 47.3959 46.3243 47.4401 46.4215 47.4401H47.835C47.9278 47.4401 47.9764 47.3959 47.9764 47.2988V46.8393C47.9764 46.7466 47.9278 46.698 47.835 46.698H47.0841V46.2077H47.7732ZM50.6973 46.5876C50.6973 46.3711 50.6531 46.1944 50.5692 46.0531C50.4808 45.9161 50.3351 45.7703 50.1319 45.6113C49.9066 45.4435 49.7961 45.2933 49.7961 45.1696C49.7961 45.1077 49.8138 45.0591 49.8492 45.0326C49.8845 45.0061 49.9463 44.9929 50.0391 44.9929C50.1584 44.9929 50.2732 45.0061 50.3792 45.0326C50.4985 45.0591 50.5604 45.0238 50.5604 44.9266V44.4849C50.5604 44.4319 50.5471 44.3965 50.525 44.37C50.5029 44.3435 50.4676 44.3259 50.4146 44.3126C50.2953 44.2861 50.1275 44.2684 49.9154 44.2684C49.562 44.2684 49.3102 44.3391 49.1645 44.476C49.0187 44.613 48.948 44.8383 48.948 45.1519C48.948 45.3993 48.9966 45.6025 49.0938 45.7527C49.191 45.9029 49.3235 46.0398 49.5002 46.1635C49.6504 46.2695 49.7431 46.349 49.7873 46.3976C49.8271 46.4462 49.8492 46.4992 49.8492 46.5611C49.8492 46.6936 49.7299 46.7598 49.4958 46.7598C49.35 46.7598 49.2263 46.7466 49.1247 46.7112C49.001 46.6759 48.9436 46.7112 48.9436 46.8173V47.2457C48.9436 47.2988 48.9524 47.3385 48.9745 47.3606C48.9966 47.3827 49.0364 47.4004 49.0982 47.418C49.2484 47.4622 49.4516 47.4843 49.7166 47.4843C49.9993 47.4843 50.2335 47.4136 50.419 47.2678C50.6045 47.1221 50.6973 46.8968 50.6973 46.5876Z" fill="black"/>
<path d="M7.3005 46.4462C7.3005 46.5478 7.28725 46.6141 7.26075 46.6494C7.23424 46.6847 7.19007 46.698 7.13706 46.698C7.11056 46.698 7.07964 46.698 7.03988 46.6936C7.00012 46.6892 6.97362 46.6847 6.95595 46.6847C6.87202 46.6847 6.83226 46.7245 6.83226 46.7996V47.2413C6.83226 47.3385 6.88085 47.4004 6.98687 47.4224C7.08847 47.4489 7.20332 47.4578 7.32701 47.4578C7.6053 47.4578 7.80409 47.4004 7.92777 47.2767C8.05146 47.1574 8.1133 46.9321 8.1133 46.6008V44.454C8.1133 44.3612 8.06471 44.3126 7.97195 44.3126H7.44186C7.34468 44.3126 7.3005 44.3612 7.3005 44.454V46.4462ZM10.1829 44.2684C9.99736 44.2684 9.84275 44.2905 9.72348 44.3347C9.5998 44.3789 9.49378 44.4628 9.40101 44.5777C9.30825 44.6925 9.24199 44.8559 9.20223 45.068C9.15806 45.28 9.14039 45.5495 9.14039 45.8764C9.14039 46.2032 9.15806 46.4727 9.20223 46.6847C9.24199 46.8968 9.30825 47.0646 9.40101 47.1795C9.49378 47.2943 9.5998 47.3739 9.72348 47.418C9.84275 47.4622 9.99736 47.4843 10.1829 47.4843C10.3684 47.4843 10.5186 47.4622 10.6423 47.418C10.7616 47.3739 10.8676 47.2943 10.9603 47.1795C11.0531 47.0646 11.1194 46.8968 11.1635 46.6847C11.2033 46.4727 11.2254 46.2032 11.2254 45.8764C11.2254 45.5495 11.2033 45.28 11.1635 45.068C11.1194 44.8559 11.0531 44.6925 10.9603 44.5777C10.8676 44.4628 10.7616 44.3789 10.6423 44.3347C10.5186 44.2905 10.3684 44.2684 10.1829 44.2684ZM10.1829 46.7598C10.121 46.7598 10.0725 46.7422 10.046 46.698C10.015 46.6582 9.99294 46.5787 9.98411 46.455C9.97086 46.3358 9.96644 46.1414 9.96644 45.8764C9.96644 45.6113 9.97086 45.4214 9.98411 45.2977C9.99294 45.1784 10.015 45.0989 10.046 45.0547C10.0725 45.015 10.121 44.9929 10.1829 44.9929C10.2447 44.9929 10.2889 45.015 10.3198 45.0547C10.3463 45.0989 10.3684 45.1784 10.3817 45.2977C10.3905 45.4214 10.3993 45.6113 10.3993 45.8764C10.3993 46.1414 10.3905 46.3358 10.3817 46.455C10.3684 46.5787 10.3463 46.6582 10.3198 46.698C10.2889 46.7422 10.2447 46.7598 10.1829 46.7598ZM13.2437 47.4843C13.5882 47.4843 13.8444 47.4136 14.0035 47.2678C14.1625 47.1265 14.242 46.8879 14.242 46.5522V44.454C14.242 44.3612 14.1934 44.3126 14.1006 44.3126H13.5705C13.4734 44.3126 13.4292 44.3612 13.4292 44.454V46.4374C13.4292 46.5522 13.4159 46.6317 13.3894 46.6759C13.3629 46.7201 13.3143 46.7422 13.2437 46.7422C13.173 46.7422 13.1244 46.7201 13.0979 46.6759C13.0714 46.6317 13.0581 46.5522 13.0581 46.4374V44.454C13.0581 44.3612 13.0095 44.3126 12.9168 44.3126H12.3867C12.2895 44.3126 12.2453 44.3612 12.2453 44.454V46.5522C12.2453 46.8879 12.3248 47.1265 12.4839 47.2678C12.6429 47.4136 12.8947 47.4843 13.2437 47.4843ZM16.0982 45.8322V45.0459H16.2219C16.3367 45.0459 16.4118 45.0768 16.4471 45.1298C16.4825 45.1828 16.5001 45.2888 16.5001 45.439C16.5001 45.5936 16.4825 45.6997 16.4471 45.7527C16.4118 45.8057 16.3367 45.8322 16.2219 45.8322H16.0982ZM15.4267 44.3126C15.3295 44.3126 15.2854 44.3612 15.2854 44.454V47.2988C15.2854 47.3959 15.3295 47.4401 15.4267 47.4401H15.9568C16.0496 47.4401 16.0982 47.3959 16.0982 47.2988V46.5213H16.1423L16.4648 47.3164C16.4825 47.3694 16.509 47.4004 16.5355 47.418C16.562 47.4357 16.6017 47.4401 16.6592 47.4401H17.1981C17.3129 47.4401 17.3439 47.3827 17.2909 47.2634L16.8933 46.3799C17.1804 46.2386 17.3262 45.925 17.3262 45.439C17.3262 45.0106 17.2423 44.7146 17.0788 44.5556C16.9154 44.3965 16.6283 44.3126 16.2219 44.3126H15.4267ZM20.0175 46.5876C20.0175 46.3711 19.9733 46.1944 19.8894 46.0531C19.801 45.9161 19.6552 45.7703 19.452 45.6113C19.2268 45.4435 19.1163 45.2933 19.1163 45.1696C19.1163 45.1077 19.134 45.0591 19.1693 45.0326C19.2047 45.0061 19.2665 44.9929 19.3593 44.9929C19.4785 44.9929 19.5934 45.0061 19.6994 45.0326C19.8187 45.0591 19.8805 45.0238 19.8805 44.9266V44.4849C19.8805 44.4319 19.8673 44.3965 19.8452 44.37C19.8231 44.3435 19.7878 44.3259 19.7348 44.3126C19.6155 44.2861 19.4476 44.2684 19.2356 44.2684C18.8822 44.2684 18.6304 44.3391 18.4846 44.4761C18.3389 44.613 18.2682 44.8383 18.2682 45.1519C18.2682 45.3993 18.3168 45.6025 18.414 45.7527C18.5111 45.9029 18.6437 46.0398 18.8204 46.1635C18.9705 46.2695 19.0633 46.349 19.1075 46.3976C19.1472 46.4462 19.1693 46.4992 19.1693 46.5611C19.1693 46.6936 19.0501 46.7598 18.8159 46.7598C18.6702 46.7598 18.5465 46.7466 18.4449 46.7112C18.3212 46.6759 18.2638 46.7112 18.2638 46.8173V47.2457C18.2638 47.2988 18.2726 47.3385 18.2947 47.3606C18.3168 47.3827 18.3565 47.4004 18.4184 47.418C18.5686 47.4622 18.7718 47.4843 19.0368 47.4843C19.3195 47.4843 19.5536 47.4136 19.7392 47.2678C19.9247 47.1221 20.0175 46.8968 20.0175 46.5876Z" fill="black"/>
<path d="M64.9094 46.6936C64.9756 46.6936 65.0242 46.6538 65.0595 46.5743L65.3555 45.8719V47.2988C65.3555 47.3959 65.3997 47.4401 65.4969 47.4401H66.0093C66.102 47.4401 66.1506 47.3959 66.1506 47.2988V44.454C66.1506 44.3612 66.102 44.3126 66.0093 44.3126H65.5366C65.4394 44.3126 65.3776 44.3524 65.3467 44.4275L64.9094 45.4435L64.472 44.4275C64.4367 44.3524 64.3748 44.3126 64.2821 44.3126H63.8094C63.7122 44.3126 63.6681 44.3612 63.6681 44.454V47.2988C63.6681 47.3959 63.7122 47.4401 63.8094 47.4401H64.3218C64.4146 47.4401 64.4632 47.3959 64.4632 47.2988V45.8719L64.7592 46.5743C64.7901 46.6538 64.8387 46.6936 64.9094 46.6936ZM67.2217 47.2988C67.2217 47.3959 67.2658 47.4401 67.363 47.4401H67.8931C67.9859 47.4401 68.0345 47.3959 68.0345 47.2988V44.454C68.0345 44.3612 67.9859 44.3126 67.8931 44.3126H67.363C67.2658 44.3126 67.2217 44.3612 67.2217 44.454V47.2988ZM71.1811 44.454C71.1811 44.3612 71.1325 44.3126 71.0398 44.3126H70.5362C70.439 44.3126 70.3948 44.3612 70.3948 44.454V45.682L69.8912 44.4319C69.8559 44.3524 69.7941 44.3126 69.7013 44.3126H69.2463C69.1491 44.3126 69.105 44.3612 69.105 44.454V47.2988C69.105 47.3959 69.1491 47.4401 69.2463 47.4401H69.7499C69.8427 47.4401 69.8912 47.3959 69.8912 47.2988V46.0707L70.3948 47.3208C70.4257 47.4004 70.4876 47.4401 70.5848 47.4401H71.0398C71.1325 47.4401 71.1811 47.3959 71.1811 47.2988V44.454ZM73.2249 47.4843C73.5694 47.4843 73.8256 47.4136 73.9847 47.2678C74.1437 47.1265 74.2232 46.8879 74.2232 46.5522V44.454C74.2232 44.3612 74.1746 44.3126 74.0818 44.3126H73.5517C73.4546 44.3126 73.4104 44.3612 73.4104 44.454V46.4374C73.4104 46.5522 73.3971 46.6317 73.3706 46.6759C73.3441 46.7201 73.2955 46.7422 73.2249 46.7422C73.1542 46.7422 73.1056 46.7201 73.0791 46.6759C73.0526 46.6317 73.0393 46.5522 73.0393 46.4374V44.454C73.0393 44.3612 72.9907 44.3126 72.898 44.3126H72.3679C72.2707 44.3126 72.2265 44.3612 72.2265 44.454V46.5522C72.2265 46.8879 72.306 47.1265 72.4651 47.2678C72.6241 47.4136 72.8759 47.4843 73.2249 47.4843ZM75.1782 44.9134C75.1782 45.0106 75.2224 45.0547 75.3196 45.0547H75.6288V47.2988C75.6288 47.3959 75.673 47.4401 75.7701 47.4401H76.3002C76.393 47.4401 76.4416 47.3959 76.4416 47.2988V45.0547H76.7508C76.8436 45.0547 76.8922 45.0106 76.8922 44.9134V44.454C76.8922 44.3612 76.8436 44.3126 76.7508 44.3126H75.3196C75.2224 44.3126 75.1782 44.3612 75.1782 44.454V44.9134ZM79.3508 46.2077C79.4436 46.2077 79.4922 46.1635 79.4922 46.0663V45.6334C79.4922 45.5406 79.4436 45.492 79.3508 45.492H78.6617V45.0547H79.395C79.4878 45.0547 79.5364 45.0106 79.5364 44.9134V44.454C79.5364 44.3612 79.4878 44.3126 79.395 44.3126H77.9991C77.9019 44.3126 77.8577 44.3612 77.8577 44.454V47.2988C77.8577 47.3959 77.9019 47.4401 77.9991 47.4401H79.4127C79.5054 47.4401 79.554 47.3959 79.554 47.2988V46.8393C79.554 46.7466 79.5054 46.698 79.4127 46.698H78.6617V46.2077H79.3508ZM82.2749 46.5876C82.2749 46.3711 82.2308 46.1944 82.1468 46.0531C82.0585 45.9161 81.9127 45.7703 81.7095 45.6113C81.4842 45.4435 81.3738 45.2933 81.3738 45.1696C81.3738 45.1077 81.3915 45.0591 81.4268 45.0326C81.4621 45.0061 81.524 44.9929 81.6167 44.9929C81.736 44.9929 81.8509 45.0061 81.9569 45.0326C82.0762 45.0591 82.138 45.0238 82.138 44.9266V44.4849C82.138 44.4319 82.1247 44.3965 82.1027 44.37C82.0806 44.3435 82.0452 44.3259 81.9922 44.3126C81.873 44.2861 81.7051 44.2684 81.4931 44.2684C81.1397 44.2684 80.8879 44.3391 80.7421 44.476C80.5963 44.613 80.5257 44.8383 80.5257 45.1519C80.5257 45.3993 80.5742 45.6025 80.6714 45.7527C80.7686 45.9029 80.9011 46.0398 81.0778 46.1635C81.228 46.2695 81.3208 46.349 81.365 46.3976C81.4047 46.4462 81.4268 46.4992 81.4268 46.5611C81.4268 46.6936 81.3075 46.7598 81.0734 46.7598C80.9276 46.7598 80.8039 46.7466 80.7023 46.7112C80.5787 46.6759 80.5212 46.7112 80.5212 46.8173V47.2457C80.5212 47.2988 80.5301 47.3385 80.5522 47.3606C80.5742 47.3827 80.614 47.4004 80.6758 47.418C80.826 47.4622 81.0292 47.4843 81.2943 47.4843C81.577 47.4843 81.8111 47.4136 81.9966 47.2678C82.1822 47.1221 82.2749 46.8968 82.2749 46.5876Z" fill="black"/>
<path d="M93.4644 46.5876C93.4644 46.3711 93.4203 46.1944 93.3363 46.0531C93.248 45.9161 93.1022 45.7703 92.899 45.6113C92.6737 45.4435 92.5633 45.2933 92.5633 45.1696C92.5633 45.1077 92.581 45.0591 92.6163 45.0326C92.6517 45.0061 92.7135 44.9929 92.8063 44.9929C92.9255 44.9929 93.0404 45.0061 93.1464 45.0326C93.2657 45.0591 93.3275 45.0238 93.3275 44.9266V44.4849C93.3275 44.4319 93.3143 44.3965 93.2922 44.37C93.2701 44.3435 93.2347 44.3259 93.1817 44.3126C93.0625 44.2861 92.8946 44.2684 92.6826 44.2684C92.3292 44.2684 92.0774 44.3391 91.9316 44.4761C91.7858 44.613 91.7152 44.8383 91.7152 45.1519C91.7152 45.3993 91.7638 45.6025 91.8609 45.7527C91.9581 45.9029 92.0906 46.0398 92.2673 46.1635C92.4175 46.2695 92.5103 46.349 92.5545 46.3976C92.5942 46.4462 92.6163 46.4992 92.6163 46.5611C92.6163 46.6936 92.497 46.7598 92.2629 46.7598C92.1171 46.7598 91.9935 46.7466 91.8919 46.7112C91.7682 46.6759 91.7107 46.7112 91.7107 46.8173V47.2457C91.7107 47.2988 91.7196 47.3385 91.7417 47.3606C91.7638 47.3827 91.8035 47.4004 91.8654 47.418C92.0155 47.4622 92.2187 47.4843 92.4838 47.4843C92.7665 47.4843 93.0006 47.4136 93.1862 47.2678C93.3717 47.1221 93.4644 46.8968 93.4644 46.5876ZM95.9427 46.2077C96.0355 46.2077 96.0841 46.1635 96.0841 46.0663V45.6334C96.0841 45.5406 96.0355 45.492 95.9427 45.492H95.2536V45.0547H95.9869C96.0797 45.0547 96.1282 45.0106 96.1282 44.9134V44.454C96.1282 44.3612 96.0797 44.3126 95.9869 44.3126H94.591C94.4938 44.3126 94.4496 44.3612 94.4496 44.454V47.2988C94.4496 47.3959 94.4938 47.4401 94.591 47.4401H96.0046C96.0973 47.4401 96.1459 47.3959 96.1459 47.2988V46.8393C96.1459 46.7466 96.0973 46.698 96.0046 46.698H95.2536V46.2077H95.9427ZM98.3996 46.751C98.2583 46.751 98.1567 46.7289 98.0948 46.6847C98.0286 46.6406 97.98 46.5611 97.9535 46.4374C97.927 46.3137 97.9137 46.1237 97.9137 45.8631C97.9137 45.5009 97.9402 45.2668 98.0021 45.1607C98.0595 45.0547 98.1876 45.0017 98.3864 45.0017C98.4747 45.0017 98.5631 45.0106 98.647 45.0282C98.753 45.0459 98.806 45.0061 98.806 44.909V44.4805C98.806 44.3833 98.7574 44.3259 98.6647 44.3126C98.4968 44.2861 98.351 44.2684 98.2229 44.2684C98.0021 44.2684 97.8254 44.2905 97.6928 44.3347C97.5559 44.3789 97.441 44.4584 97.3439 44.5777C97.2467 44.6969 97.1804 44.8604 97.1451 45.0636C97.1053 45.2668 97.0877 45.5362 97.0877 45.8631C97.0877 46.1988 97.1053 46.4727 97.1451 46.6803C97.1848 46.8924 97.2555 47.0558 97.3527 47.1751C97.4499 47.2988 97.5647 47.3783 97.7017 47.4224C97.8342 47.4666 98.0153 47.4843 98.2362 47.4843C98.3952 47.4843 98.5498 47.471 98.6912 47.4357C98.7795 47.418 98.8281 47.3606 98.8281 47.2678V46.8438C98.8281 46.7466 98.7751 46.7068 98.6691 46.7245C98.5851 46.7422 98.4968 46.751 98.3996 46.751ZM100.756 44.2684C100.57 44.2684 100.416 44.2905 100.296 44.3347C100.173 44.3789 100.067 44.4628 99.974 44.5777C99.8812 44.6925 99.815 44.8559 99.7752 45.068C99.731 45.28 99.7134 45.5495 99.7134 45.8764C99.7134 46.2032 99.731 46.4727 99.7752 46.6847C99.815 46.8968 99.8812 47.0646 99.974 47.1795C100.067 47.2943 100.173 47.3739 100.296 47.418C100.416 47.4622 100.57 47.4843 100.756 47.4843C100.941 47.4843 101.092 47.4622 101.215 47.418C101.335 47.3739 101.441 47.2943 101.533 47.1795C101.626 47.0646 101.692 46.8968 101.737 46.6847C101.776 46.4727 101.798 46.2032 101.798 45.8764C101.798 45.5495 101.776 45.28 101.737 45.068C101.692 44.8559 101.626 44.6925 101.533 44.5777C101.441 44.4628 101.335 44.3789 101.215 44.3347C101.092 44.2905 100.941 44.2684 100.756 44.2684ZM100.756 46.7598C100.694 46.7598 100.645 46.7422 100.619 46.698C100.588 46.6582 100.566 46.5787 100.557 46.455C100.544 46.3358 100.539 46.1414 100.539 45.8764C100.539 45.6113 100.544 45.4214 100.557 45.2977C100.566 45.1784 100.588 45.0989 100.619 45.0547C100.645 45.015 100.694 44.9929 100.756 44.9929C100.818 44.9929 100.862 45.015 100.893 45.0547C100.919 45.0989 100.941 45.1784 100.955 45.2977C100.963 45.4214 100.972 45.6113 100.972 45.8764C100.972 46.1414 100.963 46.3358 100.955 46.455C100.941 46.5787 100.919 46.6582 100.893 46.698C100.862 46.7422 100.818 46.7598 100.756 46.7598ZM104.903 44.454C104.903 44.3612 104.855 44.3126 104.762 44.3126H104.258C104.161 44.3126 104.117 44.3612 104.117 44.454V45.682L103.613 44.4319C103.578 44.3524 103.516 44.3126 103.423 44.3126H102.968C102.871 44.3126 102.827 44.3612 102.827 44.454V47.2988C102.827 47.3959 102.871 47.4401 102.968 47.4401H103.472C103.565 47.4401 103.613 47.3959 103.613 47.2988V46.0707L104.117 47.3208C104.148 47.4004 104.21 47.4401 104.307 47.4401H104.762C104.855 47.4401 104.903 47.3959 104.903 47.2988V44.454ZM106.859 47.4401C107.137 47.4401 107.358 47.3959 107.521 47.3032C107.68 47.2148 107.804 47.0558 107.884 46.8261C107.963 46.5964 108.007 46.2828 108.007 45.8764C108.007 45.5716 107.985 45.3198 107.941 45.1166C107.897 44.9134 107.822 44.7543 107.724 44.6351C107.623 44.5202 107.504 44.4363 107.362 44.3877C107.221 44.3391 107.049 44.3126 106.841 44.3126H106.099C106.002 44.3126 105.958 44.3612 105.958 44.454V47.2988C105.958 47.3959 106.002 47.4401 106.099 47.4401H106.859ZM106.841 45.0459C106.929 45.0459 106.996 45.068 107.04 45.1077C107.084 45.1475 107.119 45.227 107.146 45.3463C107.168 45.47 107.181 45.6467 107.181 45.8764C107.181 46.2209 107.159 46.4418 107.115 46.5478C107.071 46.6538 106.982 46.7068 106.859 46.7068H106.77V45.0459H106.841ZM110.512 46.2077C110.605 46.2077 110.653 46.1635 110.653 46.0663V45.6334C110.653 45.5406 110.605 45.492 110.512 45.492H109.823V45.0547H110.556C110.649 45.0547 110.698 45.0106 110.698 44.9134V44.454C110.698 44.3612 110.649 44.3126 110.556 44.3126H109.16C109.063 44.3126 109.019 44.3612 109.019 44.454V47.2988C109.019 47.3959 109.063 47.4401 109.16 47.4401H110.574C110.667 47.4401 110.715 47.3959 110.715 47.2988V46.8393C110.715 46.7466 110.667 46.698 110.574 46.698H109.823V46.2077H110.512ZM113.436 46.5876C113.436 46.3711 113.392 46.1944 113.308 46.0531C113.22 45.9161 113.074 45.7703 112.871 45.6113C112.645 45.4435 112.535 45.2933 112.535 45.1696C112.535 45.1077 112.553 45.0591 112.588 45.0326C112.623 45.0061 112.685 44.9929 112.778 44.9929C112.897 44.9929 113.012 45.0061 113.118 45.0326C113.237 45.0591 113.299 45.0238 113.299 44.9266V44.4849C113.299 44.4319 113.286 44.3965 113.264 44.37C113.242 44.3435 113.206 44.3259 113.153 44.3126C113.034 44.2861 112.866 44.2684 112.654 44.2684C112.301 44.2684 112.049 44.3391 111.903 44.4761C111.758 44.613 111.687 44.8383 111.687 45.1519C111.687 45.3993 111.735 45.6025 111.833 45.7527C111.93 45.9029 112.062 46.0398 112.239 46.1635C112.389 46.2695 112.482 46.349 112.526 46.3976C112.566 46.4462 112.588 46.4992 112.588 46.5611C112.588 46.6936 112.469 46.7598 112.235 46.7598C112.089 46.7598 111.965 46.7466 111.864 46.7112C111.74 46.6759 111.682 46.7112 111.682 46.8173V47.2457C111.682 47.2988 111.691 47.3385 111.713 47.3606C111.735 47.3827 111.775 47.4004 111.837 47.418C111.987 47.4622 112.19 47.4843 112.455 47.4843C112.738 47.4843 112.972 47.4136 113.158 47.2678C113.343 47.1221 113.436 46.8968 113.436 46.5876Z" fill="black"/>
<path d="M43.0126 5.85V4.122H43.1926C43.4266 4.122 43.5796 4.176 43.6426 4.284C43.7056 4.392 43.7416 4.626 43.7416 4.986C43.7416 5.346 43.7056 5.58 43.6426 5.688C43.5796 5.796 43.4266 5.85 43.1926 5.85H43.0126ZM42.7246 9C42.9136 9 43.0126 8.91 43.0126 8.712V7.326H43.1926C44.0206 7.326 44.5966 7.164 44.9296 6.831C45.2536 6.507 45.4246 5.886 45.4246 4.986C45.4246 4.077 45.2536 3.456 44.9296 3.123C44.6056 2.799 44.0206 2.628 43.1926 2.628H41.6446C41.4466 2.628 41.3566 2.727 41.3566 2.916V8.712C41.3566 8.91 41.4466 9 41.6446 9H42.7246ZM47.7148 2.916C47.7148 2.727 47.6158 2.628 47.4268 2.628H46.3468C46.1488 2.628 46.0588 2.727 46.0588 2.916V8.712C46.0588 8.91 46.1488 9 46.3468 9H48.8668C49.0558 9 49.1548 8.91 49.1548 8.712V7.758C49.1548 7.569 49.0558 7.47 48.8668 7.47H47.7148V2.916ZM51.8279 9.09C52.5299 9.09 53.0519 8.946 53.3759 8.649C53.6999 8.361 53.8619 7.875 53.8619 7.191V2.916C53.8619 2.727 53.7629 2.628 53.5739 2.628H52.4939C52.2959 2.628 52.2059 2.727 52.2059 2.916V6.957C52.2059 7.191 52.1789 7.353 52.1249 7.443C52.0709 7.533 51.9719 7.578 51.8279 7.578C51.6839 7.578 51.5849 7.533 51.5309 7.443C51.4769 7.353 51.4499 7.191 51.4499 6.957V2.916C51.4499 2.727 51.3509 2.628 51.1619 2.628H50.0819C49.8839 2.628 49.7939 2.727 49.7939 2.916V7.191C49.7939 7.875 49.9559 8.361 50.2799 8.649C50.6039 8.946 51.1169 9.09 51.8279 9.09ZM58.0674 7.263C58.0674 6.822 57.9774 6.462 57.8064 6.174C57.6264 5.895 57.3294 5.598 56.9154 5.274C56.4564 4.932 56.2314 4.626 56.2314 4.374C56.2314 4.248 56.2674 4.149 56.3394 4.095C56.4114 4.041 56.5374 4.014 56.7264 4.014C56.9694 4.014 57.2034 4.041 57.4194 4.095C57.6624 4.149 57.7884 4.077 57.7884 3.879V2.979C57.7884 2.871 57.7614 2.799 57.7164 2.745C57.6714 2.691 57.5994 2.655 57.4914 2.628C57.2484 2.574 56.9064 2.538 56.4744 2.538C55.7544 2.538 55.2414 2.682 54.9444 2.961C54.6474 3.24 54.5034 3.699 54.5034 4.338C54.5034 4.842 54.6024 5.256 54.8004 5.562C54.9984 5.868 55.2684 6.147 55.6284 6.399C55.9344 6.615 56.1234 6.777 56.2134 6.876C56.2944 6.975 56.3394 7.083 56.3394 7.209C56.3394 7.479 56.0964 7.614 55.6194 7.614C55.3224 7.614 55.0704 7.587 54.8634 7.515C54.6114 7.443 54.4944 7.515 54.4944 7.731V8.604C54.4944 8.712 54.5124 8.793 54.5574 8.838C54.6024 8.883 54.6834 8.919 54.8094 8.955C55.1154 9.045 55.5294 9.09 56.0694 9.09C56.6454 9.09 57.1224 8.946 57.5004 8.649C57.8784 8.352 58.0674 7.893 58.0674 7.263ZM63.6546 8.532C64.1856 8.082 64.4556 7.164 64.4556 5.76C64.4556 5.112 64.4106 4.581 64.3296 4.158C64.2396 3.735 64.1046 3.402 63.9246 3.168C63.7446 2.934 63.5286 2.772 63.2766 2.682C63.0246 2.592 62.7186 2.538 62.3496 2.538C61.9716 2.538 61.6656 2.592 61.4136 2.682C61.1616 2.772 60.9456 2.934 60.7656 3.168C60.5856 3.402 60.4506 3.735 60.3696 4.158C60.2796 4.581 60.2436 5.112 60.2436 5.76C60.2436 6.552 60.3066 7.182 60.4506 7.65C60.5946 8.118 60.7926 8.451 61.0536 8.649C61.3056 8.847 61.6476 8.955 62.0796 8.973C62.7006 9.549 63.3396 9.837 64.0056 9.837C64.1856 9.837 64.2756 9.738 64.2756 9.531V8.739C64.2756 8.658 64.2576 8.595 64.2216 8.559C64.1856 8.523 64.1226 8.514 64.0506 8.514C64.0326 8.514 63.9966 8.523 63.9426 8.532C63.8886 8.541 63.8346 8.541 63.7896 8.541C63.7356 8.541 63.6906 8.541 63.6546 8.532ZM62.3496 7.506C62.2506 7.506 62.1786 7.488 62.1246 7.452C62.0706 7.416 62.0346 7.326 61.9986 7.191C61.9626 7.056 61.9446 6.885 61.9356 6.669C61.9266 6.462 61.9266 6.156 61.9266 5.76C61.9266 5.364 61.9266 5.067 61.9356 4.851C61.9446 4.644 61.9626 4.473 61.9986 4.338C62.0346 4.203 62.0706 4.113 62.1246 4.077C62.1786 4.041 62.2506 4.014 62.3496 4.014C62.4396 4.014 62.5116 4.041 62.5656 4.077C62.6196 4.113 62.6556 4.203 62.6916 4.338C62.7276 4.473 62.7456 4.644 62.7546 4.851C62.7636 5.067 62.7726 5.364 62.7726 5.76C62.7726 6.156 62.7636 6.462 62.7546 6.669C62.7456 6.885 62.7276 7.056 62.6916 7.191C62.6556 7.326 62.6196 7.416 62.5656 7.452C62.5116 7.488 62.4396 7.506 62.3496 7.506ZM67.1652 9.09C67.8672 9.09 68.3892 8.946 68.7132 8.649C69.0372 8.361 69.1992 7.875 69.1992 7.191V2.916C69.1992 2.727 69.1002 2.628 68.9112 2.628H67.8312C67.6332 2.628 67.5432 2.727 67.5432 2.916V6.957C67.5432 7.191 67.5162 7.353 67.4622 7.443C67.4082 7.533 67.3092 7.578 67.1652 7.578C67.0212 7.578 66.9222 7.533 66.8682 7.443C66.8142 7.353 66.7872 7.191 66.7872 6.957V2.916C66.7872 2.727 66.6882 2.628 66.4992 2.628H65.4192C65.2212 2.628 65.1312 2.727 65.1312 2.916V7.191C65.1312 7.875 65.2932 8.361 65.6172 8.649C65.9412 8.946 66.4542 9.09 67.1652 9.09ZM72.9638 6.489C73.1528 6.489 73.2518 6.399 73.2518 6.201V5.319C73.2518 5.13 73.1528 5.031 72.9638 5.031H71.5598V4.14H73.0538C73.2428 4.14 73.3418 4.05 73.3418 3.852V2.916C73.3418 2.727 73.2428 2.628 73.0538 2.628H70.2098C70.0118 2.628 69.9218 2.727 69.9218 2.916V8.712C69.9218 8.91 70.0118 9 70.2098 9H73.0898C73.2788 9 73.3778 8.91 73.3778 8.712V7.776C73.3778 7.587 73.2788 7.488 73.0898 7.488H71.5598V6.489H72.9638Z" fill="black"/>
<rect x="2.01587" y="25.3775" width="0.753144" height="2.26825" fill="black"/>
<rect x="31.3889" y="25.6295" width="0.753144" height="2.26825" fill="black"/>
<rect x="60.7611" y="25.8815" width="0.753144" height="2.26825" fill="black"/>
<rect x="90.134" y="25.6295" width="0.753144" height="2.26825" fill="black"/>
<rect x="23.6057" y="25.3775" width="0.753144" height="2.26825" fill="black"/>
<rect x="52.9786" y="25.6295" width="0.753144" height="2.26825" fill="black"/>
<rect x="82.3508" y="25.8815" width="0.753144" height="2.26825" fill="black"/>
<rect x="111.724" y="25.6295" width="0.753144" height="2.26825" fill="black"/>
</g>
<defs>
<filter id="filter0_d_2237_4573" x="-5.23901" y="7.78418" width="37.1047" height="37.2028" filterUnits="userSpaceOnUse" color-interpolation-filters="sRGB">
<feFlood flood-opacity="0" result="BackgroundImageFix"/>
<feColorMatrix in="SourceAlpha" type="matrix" values="0 0 0 0 0 0 0 0 0 0 0 0 0 0 0 0 0 0 127 0" result="hardAlpha"/>
<feOffset/>
<feGaussianBlur stdDeviation="3"/>
<feColorMatrix type="matrix" values="0 0 0 0 0.678431 0 0 0 0 0.705882 0 0 0 0 0.705882 0 0 0 0.24 0"/>
<feBlend mode="normal" in2="BackgroundImageFix" result="effect1_dropShadow_2237_4573"/>
<feBlend mode="normal" in="SourceGraphic" in2="effect1_dropShadow_2237_4573" result="shape"/>
</filter>
<filter id="filter1_d_2237_4573" x="-0.239014" y="25.1356" width="27.1047" height="2.5" filterUnits="userSpaceOnUse" color-interpolation-filters="sRGB">
<feFlood flood-opacity="0" result="BackgroundImageFix"/>
<feColorMatrix in="SourceAlpha" type="matrix" values="0 0 0 0 0 0 0 0 0 0 0 0 0 0 0 0 0 0 127 0" result="hardAlpha"/>
<feOffset/>
<feGaussianBlur stdDeviation="0.5"/>
<feColorMatrix type="matrix" values="0 0 0 0 0 0 0 0 0 0 0 0 0 0 0 0 0 0 1 0"/>
<feBlend mode="normal" in2="BackgroundImageFix" result="effect1_dropShadow_2237_4573"/>
<feBlend mode="normal" in="SourceGraphic" in2="effect1_dropShadow_2237_4573" result="shape"/>
</filter>
<filter id="filter2_d_2237_4573" x="24.134" y="8.03621" width="37.1047" height="37.2028" filterUnits="userSpaceOnUse" color-interpolation-filters="sRGB">
<feFlood flood-opacity="0" result="BackgroundImageFix"/>
<feColorMatrix in="SourceAlpha" type="matrix" values="0 0 0 0 0 0 0 0 0 0 0 0 0 0 0 0 0 0 127 0" result="hardAlpha"/>
<feOffset/>
<feGaussianBlur stdDeviation="3"/>
<feColorMatrix type="matrix" values="0 0 0 0 0.678431 0 0 0 0 0.705882 0 0 0 0 0.705882 0 0 0 0.24 0"/>
<feBlend mode="normal" in2="BackgroundImageFix" result="effect1_dropShadow_2237_4573"/>
<feBlend mode="normal" in="SourceGraphic" in2="effect1_dropShadow_2237_4573" result="shape"/>
</filter>
<filter id="filter3_d_2237_4573" x="29.134" y="25.3876" width="27.1047" height="2.5" filterUnits="userSpaceOnUse" color-interpolation-filters="sRGB">
<feFlood flood-opacity="0" result="BackgroundImageFix"/>
<feColorMatrix in="SourceAlpha" type="matrix" values="0 0 0 0 0 0 0 0 0 0 0 0 0 0 0 0 0 0 127 0" result="hardAlpha"/>
<feOffset/>
<feGaussianBlur stdDeviation="0.5"/>
<feColorMatrix type="matrix" values="0 0 0 0 0 0 0 0 0 0 0 0 0 0 0 0 0 0 1 0"/>
<feBlend mode="normal" in2="BackgroundImageFix" result="effect1_dropShadow_2237_4573"/>
<feBlend mode="normal" in="SourceGraphic" in2="effect1_dropShadow_2237_4573" result="shape"/>
</filter>
<filter id="filter4_d_2237_4573" x="53.5062" y="8.28824" width="37.1049" height="37.2028" filterUnits="userSpaceOnUse" color-interpolation-filters="sRGB">
<feFlood flood-opacity="0" result="BackgroundImageFix"/>
<feColorMatrix in="SourceAlpha" type="matrix" values="0 0 0 0 0 0 0 0 0 0 0 0 0 0 0 0 0 0 127 0" result="hardAlpha"/>
<feOffset/>
<feGaussianBlur stdDeviation="3"/>
<feColorMatrix type="matrix" values="0 0 0 0 0.678431 0 0 0 0 0.705882 0 0 0 0 0.705882 0 0 0 0.24 0"/>
<feBlend mode="normal" in2="BackgroundImageFix" result="effect1_dropShadow_2237_4573"/>
<feBlend mode="normal" in="SourceGraphic" in2="effect1_dropShadow_2237_4573" result="shape"/>
</filter>
<filter id="filter5_d_2237_4573" x="58.5062" y="25.6396" width="27.1049" height="2.5" filterUnits="userSpaceOnUse" color-interpolation-filters="sRGB">
<feFlood flood-opacity="0" result="BackgroundImageFix"/>
<feColorMatrix in="SourceAlpha" type="matrix" values="0 0 0 0 0 0 0 0 0 0 0 0 0 0 0 0 0 0 127 0" result="hardAlpha"/>
<feOffset/>
<feGaussianBlur stdDeviation="0.5"/>
<feColorMatrix type="matrix" values="0 0 0 0 0 0 0 0 0 0 0 0 0 0 0 0 0 0 1 0"/>
<feBlend mode="normal" in2="BackgroundImageFix" result="effect1_dropShadow_2237_4573"/>
<feBlend mode="normal" in="SourceGraphic" in2="effect1_dropShadow_2237_4573" result="shape"/>
</filter>
<filter id="filter6_d_2237_4573" x="82.8792" y="8.03621" width="37.1047" height="37.2028" filterUnits="userSpaceOnUse" color-interpolation-filters="sRGB">
<feFlood flood-opacity="0" result="BackgroundImageFix"/>
<feColorMatrix in="SourceAlpha" type="matrix" values="0 0 0 0 0 0 0 0 0 0 0 0 0 0 0 0 0 0 127 0" result="hardAlpha"/>
<feOffset/>
<feGaussianBlur stdDeviation="3"/>
<feColorMatrix type="matrix" values="0 0 0 0 0.678431 0 0 0 0 0.705882 0 0 0 0 0.705882 0 0 0 0.24 0"/>
<feBlend mode="normal" in2="BackgroundImageFix" result="effect1_dropShadow_2237_4573"/>
<feBlend mode="normal" in="SourceGraphic" in2="effect1_dropShadow_2237_4573" result="shape"/>
</filter>
<filter id="filter7_d_2237_4573" x="87.8792" y="25.3876" width="27.1047" height="2.5" filterUnits="userSpaceOnUse" color-interpolation-filters="sRGB">
<feFlood flood-opacity="0" result="BackgroundImageFix"/>
<feColorMatrix in="SourceAlpha" type="matrix" values="0 0 0 0 0 0 0 0 0 0 0 0 0 0 0 0 0 0 127 0" result="hardAlpha"/>
<feOffset/>
<feGaussianBlur stdDeviation="0.5"/>
<feColorMatrix type="matrix" values="0 0 0 0 0 0 0 0 0 0 0 0 0 0 0 0 0 0 1 0"/>
<feBlend mode="normal" in2="BackgroundImageFix" result="effect1_dropShadow_2237_4573"/>
<feBlend mode="normal" in="SourceGraphic" in2="effect1_dropShadow_2237_4573" result="shape"/>
</filter>
<linearGradient id="paint0_linear_2237_4573" x1="0.760986" y1="13.7842" x2="0.760986" y2="38.987" gradientUnits="userSpaceOnUse">
<stop stop-color="white" stop-opacity="0.5"/>
<stop offset="1" stop-color="#D8D8D8" stop-opacity="0.5"/>
</linearGradient>
<linearGradient id="paint1_linear_2237_4573" x1="30.134" y1="14.0362" x2="30.134" y2="39.239" gradientUnits="userSpaceOnUse">
<stop stop-color="white" stop-opacity="0.5"/>
<stop offset="1" stop-color="#D8D8D8" stop-opacity="0.5"/>
</linearGradient>
<linearGradient id="paint2_linear_2237_4573" x1="59.5062" y1="14.2882" x2="59.5062" y2="39.491" gradientUnits="userSpaceOnUse">
<stop stop-color="white" stop-opacity="0.5"/>
<stop offset="1" stop-color="#D8D8D8" stop-opacity="0.5"/>
</linearGradient>
<linearGradient id="paint3_linear_2237_4573" x1="88.8792" y1="14.0362" x2="88.8792" y2="39.239" gradientUnits="userSpaceOnUse">
<stop stop-color="white" stop-opacity="0.5"/>
<stop offset="1" stop-color="#D8D8D8" stop-opacity="0.5"/>
</linearGradient>
<clipPath id="clip0_2237_4573">
<rect width="114.478" height="47.4401" fill="white" transform="translate(0.760986)"/>
</clipPath>
<clipPath id="clip1_2237_4573">
<rect width="25.2791" height="25.2028" fill="white" transform="translate(0.760986 13.7842)"/>
</clipPath>
<clipPath id="clip2_2237_4573">
<rect width="25.2791" height="25.2028" fill="white" transform="translate(30.134 14.0362)"/>
</clipPath>
<clipPath id="clip3_2237_4573">
<rect width="25.2791" height="25.2028" fill="white" transform="translate(59.5062 14.2882)"/>
</clipPath>
<clipPath id="clip4_2237_4573">
<rect width="25.2791" height="25.2028" fill="white" transform="translate(88.8792 14.0362)"/>
</clipPath>
</defs>
</svg>
