<svg width="89" height="78" viewBox="0 0 89 78" fill="none" xmlns="http://www.w3.org/2000/svg">
<path fill-rule="evenodd" clip-rule="evenodd" d="M34.137 17.5785C34.137 8.13324 26.4958 0.47744 17.0685 0.47744C7.64121 0.47744 0 8.13324 0 17.5785C0 27.0205 7.64121 34.6796 17.0685 34.6796C26.4958 34.6796 34.137 27.0205 34.137 17.5785ZM13.411 44.9603V72.8408C13.411 75.3775 15.2905 77.4323 17.6141 77.4323C39.3213 77.4323 49.5607 66.3479 58.7559 56.3939C66.2493 48.2821 73.0492 40.921 84.7969 40.921C87.1204 40.921 89 38.8629 89 36.3295V8.73349C89 6.19677 87.1204 4.14196 84.7969 4.14196C63.8813 4.14196 53.7401 14.9089 44.5151 24.7032C36.8187 32.8745 29.76 40.3688 17.6141 40.3688C15.2237 40.3688 13.411 42.427 13.411 44.9603Z" fill="white"/>
</svg>
