<svg width="218" height="109" viewBox="0 0 218 109" fill="none" xmlns="http://www.w3.org/2000/svg">
<mask id="mask0_2385_3806" style="mask-type:luminance" maskUnits="userSpaceOnUse" x="0" y="55" width="34" height="54">
<path fill-rule="evenodd" clip-rule="evenodd" d="M0 55.6155H33.5757V108.118H0V55.6155Z" fill="white"/>
</mask>
<g mask="url(#mask0_2385_3806)">
<path fill-rule="evenodd" clip-rule="evenodd" d="M19.3019 86.2675C19.3019 86.2675 19.2698 87.1536 18.8831 87.5854C18.3987 88.1291 17.8485 88.4761 17.331 88.4761C16.3119 88.4761 14.2382 88.5102 14.2382 88.5102V61.664H16.8209C16.8209 61.664 17.8876 61.6726 18.6148 62.3832C19.2101 62.9649 19.3019 63.7373 19.3019 63.7373V86.2675ZM33.5024 91.1584C33.5917 90.7411 33.5742 90.4819 33.5742 90.4819V59.422C33.5742 59.422 33.5611 59.3684 33.5396 59.2907C33.3304 57.2305 31.5907 55.6226 29.4753 55.6226C29.4518 55.6226 29.4292 55.6261 29.4061 55.6266C29.209 55.6116 29.0887 55.6161 29.0887 55.6161H-0.000213623V108.118H14.2722L14.3068 94.8655H29.1905C29.1905 94.8655 29.6318 94.9092 30.2537 94.7336C31.9839 94.3846 33.3169 92.9428 33.5024 91.1584Z" fill="white"/>
</g>
<path fill-rule="evenodd" clip-rule="evenodd" d="M72.4087 55.6365H58.1092V99.9496C58.1092 99.9496 57.5651 101.825 55.5541 101.825C53.542 101.825 52.9984 99.9496 52.9984 99.9496V55.6094H38.7531L38.7877 103.937C38.7862 103.983 38.7807 104.028 38.7807 104.074C38.7807 104.122 38.7862 104.169 38.7877 104.216V104.277L38.7912 104.28C38.8925 106.313 40.4763 107.956 42.4878 108.14L42.5049 108.159H42.8439C42.8514 108.159 42.8584 108.159 42.8659 108.159C42.873 108.159 42.88 108.159 42.888 108.159H68.2492L68.2607 108.148C68.2693 108.148 68.2778 108.148 68.2863 108.148C70.5296 108.148 72.348 106.34 72.3691 104.101L72.3816 104.09L72.4087 55.6365Z" fill="white"/>
<mask id="mask1_2385_3806" style="mask-type:luminance" maskUnits="userSpaceOnUse" x="174" y="95" width="13" height="14">
<path fill-rule="evenodd" clip-rule="evenodd" d="M174.005 95.5449H186.645V108.288H174.005V95.5449Z" fill="white"/>
</mask>
<g mask="url(#mask1_2385_3806)">
<path fill-rule="evenodd" clip-rule="evenodd" d="M184.412 105.828C183.14 107.289 181.721 107.606 180.854 107.606C179.987 107.606 178.149 107.655 176.55 106.16C175.109 104.814 174.816 102.779 174.816 101.844C174.816 100.91 175.054 99.3735 176.505 97.9086C177.828 96.5751 179.569 96.2942 180.315 96.2942C181.063 96.2942 183.004 96.6247 184.53 98.1648C185.729 99.3755 185.934 101.09 185.934 101.874C185.934 102.658 185.634 104.425 184.412 105.828ZM180.257 95.5449C179.408 95.5449 177.427 95.8604 175.924 97.3624C174.274 99.0133 174.005 100.744 174.005 101.798C174.005 102.851 174.337 105.143 175.974 106.66C177.794 108.345 179.884 108.288 180.869 108.288C181.854 108.288 183.468 107.932 184.915 106.286C186.304 104.705 186.645 102.714 186.645 101.831C186.645 100.948 186.413 99.0159 185.049 97.6518C183.315 95.9175 181.106 95.5449 180.257 95.5449Z" fill="white"/>
</g>
<path fill-rule="evenodd" clip-rule="evenodd" d="M179.357 101.663V99.5032L180.478 99.4867C180.478 99.4867 181.344 99.6055 181.344 100.575C181.344 101.543 180.24 101.663 180.24 101.663H179.357ZM181.992 101.802C182.313 101.398 182.531 100.798 182.517 100.217C182.502 99.6425 182.187 99.1721 181.758 98.8762C181.133 98.4469 180.325 98.3311 180.325 98.3311H178.099L178.116 105.672H179.34V102.562L181.633 105.654H183.281L180.92 102.647C180.92 102.647 181.534 102.379 181.992 101.802Z" fill="white"/>
<mask id="mask2_2385_3806" style="mask-type:luminance" maskUnits="userSpaceOnUse" x="107" y="0" width="111" height="87">
<path fill-rule="evenodd" clip-rule="evenodd" d="M107.145 0H218V86.1911H107.145V0Z" fill="white"/>
</mask>
<g mask="url(#mask2_2385_3806)">
<path fill-rule="evenodd" clip-rule="evenodd" d="M214.669 0.0107683C212.472 0.146175 209.685 2.00326 206.876 4.33727C204.067 6.67028 200.646 10.9752 197.497 19.5384C196.603 21.9708 195.396 24.7737 193.863 26.9246C191.011 30.9292 187.779 33.1554 185.089 33.9778C182.884 34.6514 180.216 34.4838 178.376 34.1734C176.688 33.8886 174.641 33.2873 172.627 32.3891C170.481 31.4312 168.366 30.1523 166.461 29.0761C165.086 28.3003 162.817 26.7998 160.183 24.4783C155.448 20.3037 151.428 16.9055 149.651 15.4838C148.151 14.2842 145.786 12.5304 143.344 10.9652C141.174 9.5745 138.931 8.35133 137.394 7.5093C134.132 5.71992 130.191 4.49574 128.06 4.11059C125.932 3.72593 125.206 3.90698 125.116 3.70336C124.934 3.29564 123.802 1.23344 123.462 0.644171C123.122 0.0559039 122.692 0.123607 122.193 0.508263C121.695 0.893922 121.038 1.70937 120.63 2.20837C120.222 2.70637 119.905 2.66073 119.679 2.36584C119.452 2.07246 118.478 1.07597 118.047 0.531332C117.617 -0.0117995 117.3 0.214882 116.914 0.939057C116.53 1.66424 115.419 3.79363 114.558 4.60909C113.698 5.42454 112.837 5.08552 112.021 6.26356C111.577 6.90548 111.818 7.89395 111.273 8.91352C110.73 9.93308 108.894 10.408 108.917 11.6773C108.945 13.1979 110.752 13.9201 111.796 14.6904C112.837 15.4602 113.811 17.0921 115.17 17.1147C116.53 17.1372 117.094 15.9166 120.335 17.0013C123.108 17.9296 122.284 22.1438 120.2 21.6909C119.444 21.5264 118.432 21.1919 116.348 21.1247C114.264 21.0565 112.226 21.4647 110.594 22.0981C108.963 22.733 107.085 24.4096 107.147 26.4031C107.201 28.1393 109.053 30.2767 111.16 30.2536C112.657 30.2386 113.063 29.6202 113.244 28.0345C113.426 26.4482 114.083 26.1307 117.254 27.6493C118.395 28.195 120.062 29.1097 122.187 29.8921C124.436 30.72 127.186 31.3198 128.514 31.2968C129.807 31.2737 131.571 30.9653 132.904 30.2902C134.231 29.6177 135.129 28.5771 135.423 28.2601C136.012 27.6262 136.307 27.7847 137.667 28.9853C138.641 29.8464 141.604 32.9869 144.518 35.3038C145.669 36.2191 147.08 36.9292 147.952 37.4357C149.541 38.36 153.941 39.9453 158.427 40.6238C162.581 41.2532 165.619 40.693 167.842 41.3545C168.798 41.6394 172.132 42.7497 174.569 45.6379C176.824 48.3109 178.223 52.6319 178.898 54.2001C179.584 55.7934 182.248 60.7212 185.536 64.488C188.977 68.4329 192.136 70.6766 193.555 71.5989C194.349 72.1144 194.484 73.2077 194.303 75.2007C194.165 76.7162 194.208 79.8682 195.435 82.6546C196.863 85.8938 201.834 87.1526 201.666 85.3953C201.102 79.5227 202.458 79.5508 202.368 78.305C202.277 77.0588 200.51 75.5186 200.058 73.9555C199.603 72.3923 199.921 70.2624 199.332 69.1972C198.743 68.1325 196.836 67.975 195.051 65.1194C194.584 64.3737 194.355 63.7789 193.906 63.0542C193.544 62.4694 193.542 61.1404 193.623 58.3686C193.67 56.7813 193.42 51.8415 192.472 47.8781C191.473 43.698 190.7 41.5822 189.296 40.0636C188.469 39.1694 188.196 38.6945 188.73 38.2963C189.885 37.4357 192.952 35.4081 195.526 31.6358C195.789 31.2486 196.44 29.6629 197.368 27.5285C198.259 25.4768 199.403 22.9246 200.873 20.1954C204.28 13.8689 207.442 12.5605 212.812 9.84231C216.807 7.81973 217.977 5.58301 218 3.29564C218.022 1.00726 216.867 -0.125642 214.669 0.0107683Z" fill="white"/>
</g>
<path fill-rule="evenodd" clip-rule="evenodd" d="M130.511 59.6846C130.511 57.4283 128.683 55.6003 126.427 55.6003C126.363 55.6003 126.303 55.6059 126.24 55.6094H81.5066C81.5066 55.6094 81.494 55.6124 81.4755 55.6184C79.3125 55.6565 77.5647 57.3747 77.4734 59.5241C77.4684 59.5402 77.4649 59.5512 77.4649 59.5512V59.6836C77.4649 59.6891 77.4644 59.6936 77.4644 59.6992C77.4644 59.7047 77.4649 59.7097 77.4649 59.7152V108.132H91.8461L91.9008 64.0096C91.9008 64.0096 91.6972 61.7598 94.3196 61.7242C96.8697 61.6896 96.7669 64.0633 96.7669 64.0633L96.8216 108.159H111.193V64.0919C111.193 64.0919 111.251 61.7403 113.64 61.7403C116.335 61.7403 116.248 64.0633 116.248 64.0633L116.221 108.132H130.44L130.493 60.0462C130.504 59.9263 130.511 59.807 130.511 59.6846Z" fill="white"/>
<path fill-rule="evenodd" clip-rule="evenodd" d="M154.961 88.5576H149.904V63.9005C149.904 63.9005 150.284 61.6819 152.406 61.6984C154.634 61.7145 154.934 63.3298 154.961 63.9005V88.5576ZM169.26 59.6871C169.26 57.4293 167.431 55.6013 165.175 55.6013C165.123 55.6013 165.073 55.6068 165.022 55.6093H139.807C139.756 55.6068 139.705 55.6013 139.654 55.6013C137.396 55.6013 135.568 57.4293 135.568 59.6871C135.568 59.7503 135.575 59.8105 135.578 59.8722V108.077H149.904V94.8658H155.015V108.077H169.234V60.1405C169.25 59.991 169.26 59.8411 169.26 59.6871Z" fill="white"/>
</svg>
