<svg width="120" height="114" viewBox="0 0 120 114" fill="none" xmlns="http://www.w3.org/2000/svg">
<path d="M18.0498 15.4629V10.8603H19.9077C20.6256 10.8603 21.1323 11.0292 21.4279 11.367C21.6812 11.7048 21.8501 12.2959 21.8501 13.1405C21.8501 13.985 21.6812 14.6184 21.4279 14.9562C21.1323 15.294 20.6256 15.4629 19.9077 15.4629H18.0498ZM21.1323 34C27.2128 34 30.2953 31.002 30.2953 25.0059C30.2953 23.2324 29.9153 21.6701 29.1552 20.4033C28.3951 19.1365 27.3817 18.292 26.1149 17.8275C28.3951 16.8141 29.5352 14.7028 29.5352 11.4936C29.5352 8.62229 28.7752 6.63768 27.255 5.62426C25.7349 4.61084 23.4125 4.10413 20.2033 4.10413H11.8004C10.8714 4.10413 10.4492 4.56861 10.4492 5.45535V32.6488C10.4492 33.5777 10.8714 34 11.8004 34H21.1323ZM18.0498 27.2439V21.7967H20.4567C21.259 21.7967 21.8079 22.0079 22.1457 22.4301C22.4413 22.8524 22.6102 23.528 22.6102 24.5414C22.6102 25.5548 22.4413 26.2305 22.1457 26.6527C21.8079 27.075 21.259 27.2439 20.4567 27.2439H18.0498ZM40.5275 5.45535C40.5275 4.56861 40.063 4.10413 39.1762 4.10413H34.1091C33.1802 4.10413 32.7579 4.56861 32.7579 5.45535V32.6488C32.7579 33.5777 33.1802 34 34.1091 34H45.9324C46.8191 34 47.2836 33.5777 47.2836 32.6488V28.1728C47.2836 27.2861 46.8191 26.8216 45.9324 26.8216H40.5275V5.45535ZM57.8084 22.2612L59.3707 11.6203H59.5396L61.102 22.2612H57.8084ZM55.4437 4.10413C54.3459 4.10413 53.6703 4.61084 53.5013 5.58203L48.941 32.5221C48.8565 32.9866 48.8987 33.3666 49.1099 33.62C49.321 33.8733 49.6588 34 50.1233 34H55.3171C56.1193 34 56.5838 33.5777 56.7527 32.691L57.3017 29.0174H61.6087L62.1576 32.691C62.2843 33.5777 62.7488 34 63.5933 34H68.7871C69.2093 34 69.5472 33.8733 69.7583 33.62C69.9694 33.3666 70.0539 32.9866 69.9694 32.5221L65.409 5.58203C65.1979 4.61084 64.5645 4.10413 63.4666 4.10413H55.4437ZM84.0138 27.4128C82.6626 27.4128 81.6914 27.2016 81.1002 26.7794C80.4668 26.3571 80.0023 25.5971 79.749 24.4147C79.4956 23.2324 79.3689 21.4167 79.3689 18.9254C79.3689 15.4629 79.6223 13.2249 80.2135 12.2115C80.7624 11.1981 81.9869 10.6914 83.8871 10.6914C84.7316 10.6914 85.5761 10.7758 86.3784 10.9447C87.3918 11.1136 87.8986 10.7336 87.8986 9.80461V5.70871C87.8986 4.77974 87.4341 4.2308 86.5473 4.10413C84.9427 3.85077 83.5493 3.68187 82.3247 3.68187C80.2135 3.68187 78.5244 3.893 77.2577 4.31526C75.9487 4.73751 74.8508 5.49758 73.9218 6.63768C72.9928 7.77777 72.3595 9.34013 72.0217 11.2825C71.6416 13.2249 71.4727 15.8007 71.4727 18.9254C71.4727 22.1345 71.6416 24.7525 72.0217 26.7372C72.4017 28.764 73.0773 30.3264 74.0063 31.4665C74.9352 32.6488 76.0331 33.4088 77.3421 33.8311C78.6089 34.2534 80.3401 34.4223 82.4514 34.4223C83.9716 34.4223 85.4495 34.2956 86.8007 33.9578C87.6452 33.7889 88.1097 33.2399 88.1097 32.3532V28.2995C88.1097 27.3705 87.603 26.9905 86.5896 27.1594C85.7873 27.3283 84.9427 27.4128 84.0138 27.4128ZM98.5055 13.8161V5.45535C98.5055 4.56861 98.041 4.10413 97.1543 4.10413H92.0872C91.1582 4.10413 90.7359 4.56861 90.7359 5.45535V32.6488C90.7359 33.5777 91.1582 34 92.0872 34H97.1543C98.041 34 98.5055 33.5777 98.5055 32.6488V21.1211L102.644 32.7332C102.897 33.5777 103.488 34 104.375 34H109.695C110.202 34 110.54 33.8311 110.709 33.4933C110.878 33.1555 110.835 32.7755 110.667 32.311L105.05 17.1941L110.075 5.79316C110.286 5.3709 110.329 4.94864 110.16 4.61084C109.991 4.27303 109.611 4.10413 109.104 4.10413H103.868C103.024 4.10413 102.475 4.52639 102.137 5.3709L98.5055 13.8161Z" fill="black"/>
<path d="M12.59 54.2229H11.8222V54.9907H12.59V54.2229ZM12.59 49.1981V48.4303H11.8222V49.1981H12.59ZM12.59 61.3169V60.5491H11.8222V61.3169H12.59ZM18.8394 62.0846C19.3919 62.0846 19.9594 61.9536 20.384 61.5388C20.812 61.1208 20.9584 60.5484 20.9584 59.9656H19.4229C19.4229 60.3119 19.337 60.4151 19.3111 60.4404C19.2818 60.469 19.1736 60.5491 18.8394 60.5491V62.0846ZM20.9584 59.9656V55.5742H19.4229V59.9656H20.9584ZM20.9584 55.5742C20.9584 55.0034 20.8075 54.4403 20.3904 54.0231C19.9733 53.606 19.4102 53.4552 18.8394 53.4552V54.9907C19.1554 54.9907 19.2679 55.0721 19.3047 55.1089C19.3415 55.1457 19.4229 55.2582 19.4229 55.5742H20.9584ZM18.8394 53.4552H12.59V54.9907H18.8394V53.4552ZM13.3577 54.2229V49.1981H11.8222V54.2229H13.3577ZM12.59 49.9658H19.0928V48.4303H12.59V49.9658ZM19.0928 49.9658C19.6453 49.9658 20.2127 49.8348 20.6374 49.42C21.0654 49.002 21.2117 48.4296 21.2117 47.8468H19.6762C19.6762 48.1931 19.5904 48.2963 19.5645 48.3216C19.5351 48.3502 19.427 48.4303 19.0928 48.4303V49.9658ZM21.2117 47.8468V43.4554H19.6762V47.8468H21.2117ZM21.2117 43.4554C21.2117 42.8846 21.0609 42.3215 20.6438 41.9043C20.2267 41.4872 19.6635 41.3364 19.0928 41.3364V42.8719C19.4087 42.8719 19.5212 42.9533 19.558 42.9901C19.5948 43.0269 19.6762 43.1394 19.6762 43.4554H21.2117ZM19.0928 41.3364H6.25611V42.8719H19.0928V41.3364ZM6.25611 41.3364C5.64372 41.3364 5.05481 41.4976 4.62527 41.9367C4.19875 42.3727 4.0527 42.957 4.0527 43.5398H5.58818C5.58818 43.1936 5.67437 43.0601 5.72289 43.0105C5.76839 42.964 5.89732 42.8719 6.25611 42.8719V41.3364ZM4.0527 43.5398V70.5643H5.58818V43.5398H4.0527ZM4.0527 70.5643C4.0527 71.1596 4.19469 71.7527 4.6312 72.1892C5.06772 72.6258 5.66079 72.7677 6.25611 72.7677V71.2323C5.88025 71.2323 5.75548 71.142 5.71695 71.1035C5.67843 71.065 5.58818 70.9402 5.58818 70.5643H4.0527ZM6.25611 72.7677H11.1543V71.2323H6.25611V72.7677ZM11.1543 72.7677C11.7371 72.7677 12.3214 72.6217 12.7574 72.1952C13.1965 71.7656 13.3577 71.1767 13.3577 70.5643H11.8222C11.8222 70.9231 11.7301 71.052 11.6836 71.0975C11.634 71.1461 11.5005 71.2323 11.1543 71.2323V72.7677ZM13.3577 70.5643V61.3169H11.8222V70.5643H13.3577ZM12.59 62.0846H18.8394V60.5491H12.59V62.0846ZM30.4865 56.6298H29.7187V57.3975H30.4865V56.6298ZM30.4865 49.1136V48.3459H29.7187V49.1136H30.4865ZM33.8223 49.9159L33.1835 50.3418V50.3418L33.8223 49.9159ZM33.8223 55.8697L34.4611 56.2956L33.8223 55.8697ZM30.4865 63.217V62.4493H29.7187V63.217H30.4865ZM30.9087 63.217L31.6202 62.9285L31.4258 62.4493H30.9087V63.217ZM33.9912 70.8177L34.7196 70.5749L34.7118 70.5518L34.7027 70.5291L33.9912 70.8177ZM34.6668 71.7889L34.241 72.4277L34.6668 71.7889ZM41.8874 70.311L42.589 69.9992L42.5876 69.9959L41.8874 70.311ZM38.0871 61.8658L37.748 61.177L37.0827 61.5046L37.387 62.1809L38.0871 61.8658ZM39.8606 44.4265L40.396 43.8763V43.8763L39.8606 44.4265ZM31.2542 56.6298V49.1136H29.7187V56.6298H31.2542ZM30.4865 49.8814H31.6688V48.3459H30.4865V49.8814ZM31.6688 49.8814C32.6733 49.8814 33.0596 50.1559 33.1835 50.3418L34.4611 49.49C33.9094 48.6625 32.86 48.3459 31.6688 48.3459V49.8814ZM33.1835 50.3418C33.2651 50.4642 33.3683 50.721 33.4455 51.1743C33.5203 51.6139 33.5613 52.1801 33.5613 52.8717H35.0968C35.0968 52.1277 35.0533 51.4693 34.9592 50.9166C34.8675 50.3776 34.7173 49.8744 34.4611 49.49L33.1835 50.3418ZM33.5613 52.8717C33.5613 53.5854 33.5202 54.1624 33.4453 54.6074C33.3681 55.0657 33.2648 55.322 33.1835 55.4439L34.4611 56.2956C34.7177 55.9108 34.8677 55.407 34.9594 54.8624C35.0534 54.3045 35.0968 53.6359 35.0968 52.8717H33.5613ZM33.1835 55.4439C33.0718 55.6115 32.7109 55.8621 31.6688 55.8621V57.3975C32.8224 57.3975 33.8972 57.1414 34.4611 56.2956L33.1835 55.4439ZM31.6688 55.8621H30.4865V57.3975H31.6688V55.8621ZM24.0681 41.3364C23.4854 41.3364 22.913 41.4827 22.4949 41.9108C22.0802 42.3354 21.9492 42.9028 21.9492 43.4554H23.4847C23.4847 43.1211 23.5648 43.013 23.5934 42.9837C23.6187 42.9578 23.7219 42.8719 24.0681 42.8719V41.3364ZM21.9492 43.4554V70.6488H23.4847V43.4554H21.9492ZM21.9492 70.6488C21.9492 71.2132 22.076 71.7903 22.5013 72.2156C22.9266 72.641 23.5037 72.7677 24.0681 72.7677V71.2323C23.7036 71.2323 23.6051 71.1479 23.587 71.1299C23.569 71.1118 23.4847 71.0133 23.4847 70.6488H21.9492ZM24.0681 72.7677H29.1352V71.2323H24.0681V72.7677ZM29.1352 72.7677C29.6878 72.7677 30.2552 72.6367 30.6798 72.222C31.1079 71.8039 31.2542 71.2315 31.2542 70.6488H29.7187C29.7187 70.995 29.6328 71.0982 29.6069 71.1235C29.5776 71.1521 29.4695 71.2323 29.1352 71.2323V72.7677ZM31.2542 70.6488V63.217H29.7187V70.6488H31.2542ZM30.4865 63.9848H30.9087V62.4493H30.4865V63.9848ZM30.1973 63.5056L33.2798 71.1062L34.7027 70.5291L31.6202 62.9285L30.1973 63.5056ZM33.2629 71.0605C33.4789 71.7085 33.8285 72.1527 34.241 72.4277L35.0927 71.1501C34.9985 71.0873 34.8413 70.9403 34.7196 70.5749L33.2629 71.0605ZM34.241 72.4277C34.7126 72.7421 35.322 72.7677 35.8491 72.7677V71.2323C35.2784 71.2323 35.1278 71.1735 35.0927 71.1501L34.241 72.4277ZM35.8491 72.7677H41.0007V71.2323H35.8491V72.7677ZM41.0007 72.7677C41.6128 72.7677 42.3652 72.6219 42.7246 71.9417C43.0523 71.3213 42.8535 70.5942 42.589 69.9992L41.1859 70.6228C41.2948 70.8678 41.3414 71.0399 41.3552 71.1508C41.3688 71.2598 41.3457 71.2646 41.367 71.2244C41.394 71.1733 41.4282 71.1678 41.3899 71.183C41.3382 71.2036 41.22 71.2323 41.0007 71.2323V72.7677ZM42.5876 69.9959L38.7872 61.5508L37.387 62.1809L41.1873 70.626L42.5876 69.9959ZM38.4262 62.5546C41.5542 61.0147 42.993 57.6444 42.993 52.8717H41.4575C41.4575 57.3887 40.1094 60.0145 37.748 61.177L38.4262 62.5546ZM42.993 52.8717C42.993 48.7286 42.1919 45.6236 40.396 43.8763L39.3252 44.9768C40.654 46.2697 41.4575 48.823 41.4575 52.8717H42.993ZM40.396 43.8763C38.6166 42.145 35.6192 41.3364 31.6688 41.3364V42.8719C35.4879 42.8719 37.9799 43.6679 39.3252 44.9768L40.396 43.8763ZM31.6688 41.3364H24.0681V42.8719H31.6688V41.3364ZM43.9732 70.6488C43.9732 71.2132 44.1 71.7903 44.5254 72.2156C44.9507 72.641 45.5278 72.7677 46.0922 72.7677V71.2323C45.7277 71.2323 45.6291 71.1479 45.6111 71.1299C45.5931 71.1118 45.5087 71.0133 45.5087 70.6488H43.9732ZM46.0922 72.7677H51.1593V71.2323H46.0922V72.7677ZM51.1593 72.7677C51.7118 72.7677 52.2793 72.6367 52.7039 72.222C53.1319 71.8039 53.2783 71.2315 53.2783 70.6488H51.7428C51.7428 70.995 51.6569 71.0982 51.631 71.1235C51.6017 71.1521 51.4935 71.2323 51.1593 71.2323V72.7677ZM53.2783 70.6488V43.4554H51.7428V70.6488H53.2783ZM53.2783 43.4554C53.2783 42.8846 53.1274 42.3215 52.7103 41.9043C52.2932 41.4872 51.7301 41.3364 51.1593 41.3364V42.8719C51.4753 42.8719 51.5878 42.9533 51.6246 42.9901C51.6614 43.0269 51.7428 43.1394 51.7428 43.4554H53.2783ZM51.1593 41.3364H46.0922V42.8719H51.1593V41.3364ZM46.0922 41.3364C45.5095 41.3364 44.9371 41.4827 44.519 41.9108C44.1043 42.3354 43.9732 42.9028 43.9732 43.4554H45.5087C45.5087 43.1211 45.5888 43.013 45.6175 42.9837C45.6428 42.9578 45.746 42.8719 46.0922 42.8719V41.3364ZM43.9732 43.4554V70.6488H45.5087V43.4554H43.9732ZM70.6538 70.691L70.2809 70.0198L70.2748 70.0233L70.6538 70.691ZM74.1163 66.1306L74.8418 66.3817L74.1163 66.1306ZM74.6652 49.7892L73.915 49.9523V49.9523L74.6652 49.7892ZM72.5962 45.1866L73.1913 44.7016L73.1815 44.6896L73.1712 44.6779L72.5962 45.1866ZM69.1336 42.822L69.3832 42.0959V42.0959L69.1336 42.822ZM66.0512 49.7048L65.5376 50.2754L65.5376 50.2754L66.0512 49.7048ZM67.0646 51.985L67.8204 51.85L67.8175 51.8341L67.814 51.8184L67.0646 51.985ZM66.769 63.4704L66.0603 63.1751V63.1751L66.769 63.4704ZM63.4754 64.9905H62.7076V65.7583H63.4754V64.9905ZM63.4754 49.1136V48.3459H62.7076V49.1136H63.4754ZM64.3199 72.7677C67.0475 72.7677 69.3088 72.3371 71.0327 71.3587L70.2748 70.0233C68.874 70.8184 66.9127 71.2323 64.3199 71.2323V72.7677ZM71.0266 71.3621C72.7535 70.4027 74.0374 68.7055 74.8418 66.3817L73.3908 65.8795C72.675 67.9472 71.5943 69.2902 70.2809 70.0199L71.0266 71.3621ZM74.8418 66.3817C75.6403 64.0748 76.0663 60.9828 76.0663 57.0521H74.5309C74.5309 60.8909 74.1124 63.7949 73.3908 65.8795L74.8418 66.3817ZM76.0663 57.0521C76.0663 54.1061 75.8533 51.6403 75.4154 49.6261L73.915 49.9523C74.3217 51.8229 74.5309 54.1709 74.5309 57.0521H76.0663ZM75.4154 49.6261C74.9726 47.5891 74.2104 45.9523 73.1913 44.7016L72.001 45.6716C72.8399 46.7011 73.5133 48.1045 73.915 49.9523L75.4154 49.6261ZM73.1712 44.6779C72.1221 43.492 70.8734 42.6082 69.3832 42.0959L68.8841 43.548C70.0963 43.9647 71.1278 44.6855 72.0211 45.6953L73.1712 44.6779ZM69.3832 42.0959C67.9332 41.5975 66.1984 41.3364 64.151 41.3364V42.8719C66.0728 42.8719 67.6317 43.1175 68.8841 43.548L69.3832 42.0959ZM64.151 41.3364H57.0571V42.8719H64.151V41.3364ZM57.0571 41.3364C56.4743 41.3364 55.9019 41.4827 55.4839 41.9108C55.0691 42.3354 54.9381 42.9028 54.9381 43.4554H56.4736C56.4736 43.1211 56.5537 43.013 56.5823 42.9837C56.6076 42.9578 56.7108 42.8719 57.0571 42.8719V41.3364ZM54.9381 43.4554V70.6488H56.4736V43.4554H54.9381ZM54.9381 70.6488C54.9381 71.2132 55.0649 71.7903 55.4902 72.2156C55.9155 72.641 56.4926 72.7677 57.0571 72.7677V71.2323C56.6925 71.2323 56.594 71.1479 56.576 71.1299C56.5579 71.1118 56.4736 71.0133 56.4736 70.6488H54.9381ZM57.0571 72.7677H64.3199V71.2323H57.0571V72.7677ZM64.151 49.8814C64.8764 49.8814 65.3011 50.0627 65.5376 50.2754L66.5648 49.1341C65.9566 48.5868 65.1146 48.3459 64.151 48.3459V49.8814ZM65.5376 50.2754C65.7684 50.4832 66.0664 51.0322 66.3151 52.1515L67.814 51.8184C67.5561 50.6575 67.1784 49.6864 66.5647 49.1341L65.5376 50.2754ZM66.3088 52.1199C66.5088 53.24 66.6346 54.8791 66.6346 57.0521H68.1701C68.1701 54.8336 68.0426 53.0946 67.8204 51.85L66.3088 52.1199ZM66.6346 57.0521C66.6346 58.6854 66.5822 60.0091 66.48 61.0407C66.3763 62.0879 66.2264 62.7765 66.0603 63.1751L67.4777 63.7657C67.7339 63.1508 67.9006 62.2771 68.008 61.1919C68.117 60.0911 68.1701 58.7124 68.1701 57.0521H66.6346ZM66.0603 63.1751C65.9042 63.5497 65.687 63.7967 65.4271 63.9566C65.1618 64.1199 64.8021 64.2228 64.3199 64.2228V65.7583C65.02 65.7583 65.6737 65.6078 66.2318 65.2643C66.7953 64.9176 67.2115 64.4044 67.4777 63.7657L66.0603 63.1751ZM64.3199 64.2228H63.4754V65.7583H64.3199V64.2228ZM64.2431 64.9905V49.1136H62.7076V64.9905H64.2431ZM63.4754 49.8814H64.151V48.3459H63.4754V49.8814ZM85.4985 60.2612L84.7388 60.1497L84.6097 61.029H85.4985V60.2612ZM87.0608 49.6203V48.8526H86.3976L86.3012 49.5088L87.0608 49.6203ZM87.2297 49.6203L87.9893 49.5088L87.893 48.8526H87.2297V49.6203ZM88.7921 60.2612V61.029H89.6808L89.5517 60.1497L88.7921 60.2612ZM81.1914 43.582L80.435 43.4505L80.4344 43.4539L81.1914 43.582ZM76.631 70.5221L77.3864 70.6594L77.388 70.6502L76.631 70.5221ZM76.7999 71.62L77.3897 71.1285L76.7999 71.62ZM84.4428 70.691L85.197 70.8347L85.1999 70.8196L85.2021 70.8045L84.4428 70.691ZM84.9917 67.0174V66.2496H84.3302L84.2324 66.9039L84.9917 67.0174ZM89.2988 67.0174L90.0581 66.9039L89.9603 66.2496H89.2988V67.0174ZM89.8477 70.691L90.6077 70.5824L90.607 70.5775L89.8477 70.691ZM97.4483 71.62L96.8586 71.1285L97.4483 71.62ZM97.6595 70.5221L96.9025 70.6502L96.9041 70.6594L97.6595 70.5221ZM93.0991 43.582L93.8561 43.4539L93.8531 43.4363L93.8493 43.4189L93.0991 43.582ZM86.258 60.3728L87.8204 49.7318L86.3012 49.5088L84.7388 60.1497L86.258 60.3728ZM87.0608 50.3881H87.2297V48.8526H87.0608V50.3881ZM86.4701 49.7318L88.0325 60.3728L89.5517 60.1497L87.9893 49.5088L86.4701 49.7318ZM88.7921 59.4935H85.4985V61.029H88.7921V59.4935ZM83.1338 41.3364C82.4719 41.3364 81.8489 41.4892 81.3504 41.8671C80.8416 42.2528 80.5465 42.8095 80.435 43.4505L81.9478 43.7136C82.0052 43.3834 82.1324 43.2011 82.278 43.0907C82.4341 42.9724 82.6978 42.8719 83.1338 42.8719V41.3364ZM80.4344 43.4539L75.8741 70.394L77.388 70.6502L81.9484 43.7102L80.4344 43.4539ZM75.8757 70.3848C75.7767 70.929 75.7803 71.5957 76.2101 72.1115L77.3897 71.1285C77.3896 71.1284 77.3891 71.1277 77.388 71.1259C77.3869 71.1241 77.385 71.1205 77.3825 71.1145C77.3775 71.1025 77.3701 71.0795 77.3647 71.0416C77.3533 70.9623 77.3539 70.838 77.3864 70.6594L75.8757 70.3848ZM76.2101 72.1115C76.6196 72.6028 77.2181 72.7677 77.8133 72.7677V71.2323C77.4796 71.2323 77.4025 71.1439 77.3897 71.1285L76.2101 72.1115ZM77.8133 72.7677H83.0071V71.2323H77.8133V72.7677ZM83.0071 72.7677C83.547 72.7677 84.0661 72.6222 84.4796 72.2455C84.8819 71.8789 85.0941 71.3748 85.197 70.8347L83.6886 70.5473C83.6226 70.8939 83.5181 71.0443 83.4454 71.1105C83.3838 71.1666 83.2695 71.2323 83.0071 71.2323V72.7677ZM85.2021 70.8045L85.7511 67.1308L84.2324 66.9039L83.6835 70.5775L85.2021 70.8045ZM84.9917 67.7851H89.2988V66.2496H84.9917V67.7851ZM88.5395 67.1308L89.0884 70.8045L90.607 70.5775L90.0581 66.9039L88.5395 67.1308ZM89.0877 70.7996C89.1661 71.3485 89.3652 71.8682 89.7793 72.2455C90.1996 72.6285 90.7344 72.7677 91.2834 72.7677V71.2323C90.9878 71.2323 90.8681 71.1604 90.8134 71.1105C90.7525 71.055 90.656 70.9203 90.6077 70.5824L89.0877 70.7996ZM91.2834 72.7677H96.4772V71.2323H91.2834V72.7677ZM96.4772 72.7677C97.044 72.7677 97.6351 72.5951 98.0381 72.1115L96.8586 71.1285C96.8393 71.1516 96.7549 71.2323 96.4772 71.2323V72.7677ZM98.0381 72.1115C98.4355 71.6346 98.5271 71.002 98.4148 70.3848L96.9041 70.6594C96.9608 70.9711 96.8834 71.0986 96.8586 71.1285L98.0381 72.1115ZM98.4165 70.394L93.8561 43.4539L92.3421 43.7102L96.9025 70.6502L98.4165 70.394ZM93.8493 43.4189C93.7153 42.8023 93.4277 42.2549 92.929 41.8707C92.4352 41.4902 91.8207 41.3364 91.1567 41.3364V42.8719C91.5906 42.8719 91.8417 42.9714 91.9918 43.087C92.1371 43.199 92.2718 43.3906 92.3489 43.7451L93.8493 43.4189ZM91.1567 41.3364H83.1338V42.8719H91.1567V41.3364ZM109.867 60.7679L109.148 60.4986L109.099 60.6288V60.7679H109.867ZM116.243 43.7509L115.556 43.4076L115.538 43.4437L115.524 43.4816L116.243 43.7509ZM116.243 42.6953L115.542 43.0071L115.542 43.0071L116.243 42.6953ZM108.094 43.3709L108.841 43.5454L108.844 43.5335L108.846 43.5215L108.094 43.3709ZM106.616 49.7048L105.868 49.5303L105.86 49.5641L105.855 49.5985L106.616 49.7048ZM106.067 53.6318V54.3995H106.735L106.827 53.7381L106.067 53.6318ZM105.898 53.6318L105.137 53.7381L105.23 54.3995H105.898V53.6318ZM105.349 49.7048L106.109 49.5985L106.104 49.5641L106.097 49.5303L105.349 49.7048ZM103.871 43.3709L104.619 43.1964L104.616 43.1847L103.871 43.3709ZM95.6792 42.6953L96.3807 43.0071L96.3807 43.0071L95.6792 42.6953ZM95.7214 43.7509L96.4403 43.4816L96.4133 43.4094L96.3724 43.344L95.7214 43.7509ZM102.097 60.7679H102.865V60.6288L102.816 60.4986L102.097 60.7679ZM110.586 61.0373L116.962 44.0203L115.524 43.4816L109.148 60.4986L110.586 61.0373ZM116.93 44.0943C117.213 43.5288 117.196 42.9491 116.945 42.3835L115.542 43.0071C115.628 43.2015 115.612 43.2974 115.556 43.4076L116.93 44.0943ZM116.945 42.3835C116.616 41.6436 115.895 41.3364 115.145 41.3364V42.8719C115.325 42.8719 115.424 42.9066 115.47 42.9319C115.509 42.9526 115.527 42.9739 115.542 43.0071L116.945 42.3835ZM115.145 41.3364H109.825V42.8719H115.145V41.3364ZM109.825 41.3364C109.234 41.3364 108.668 41.4644 108.207 41.7999C107.733 42.1445 107.456 42.6453 107.341 43.2203L108.846 43.5215C108.9 43.252 109.003 43.1194 109.11 43.0417C109.229 42.955 109.444 42.8719 109.825 42.8719V41.3364ZM107.346 43.1964L105.868 49.5303L107.363 49.8792L108.841 43.5454L107.346 43.1964ZM105.855 49.5985L105.306 53.5255L106.827 53.7381L107.376 49.8111L105.855 49.5985ZM106.067 52.864H105.898V54.3995H106.067V52.864ZM106.658 53.5255L106.109 49.5985L104.589 49.8111L105.137 53.7381L106.658 53.5255ZM106.097 49.5303L104.619 43.1964L103.123 43.5454L104.601 49.8792L106.097 49.5303ZM104.616 43.1847C104.475 42.6228 104.189 42.1366 103.726 41.7999C103.27 41.4682 102.718 41.3364 102.14 41.3364V42.8719C102.491 42.8719 102.698 42.9512 102.823 43.0417C102.941 43.1273 103.055 43.2745 103.126 43.5571L104.616 43.1847ZM102.14 41.3364H96.8193V42.8719H102.14V41.3364ZM96.8193 41.3364C96.0429 41.3364 95.3115 41.6322 94.9776 42.3835L96.3807 43.0071C96.3947 42.9757 96.4104 42.9566 96.4492 42.9362C96.4993 42.9097 96.6103 42.8719 96.8193 42.8719V41.3364ZM94.9776 42.3835C94.8593 42.6497 94.7807 42.9447 94.7904 43.2622C94.8002 43.586 94.9003 43.8859 95.0703 44.1578L96.3724 43.344C96.3313 43.2782 96.3259 43.2402 96.3251 43.2157C96.3242 43.1848 96.3301 43.1209 96.3807 43.0071L94.9776 42.3835ZM95.0024 44.0203L101.379 61.0373L102.816 60.4986L96.4403 43.4816L95.0024 44.0203ZM101.33 60.7679V70.6488H102.865V60.7679H101.33ZM101.33 70.6488C101.33 71.2132 101.457 71.7903 101.882 72.2156C102.307 72.641 102.884 72.7677 103.449 72.7677V71.2323C103.084 71.2323 102.986 71.1479 102.968 71.1299C102.95 71.1118 102.865 71.0133 102.865 70.6488H101.33ZM103.449 72.7677H108.516V71.2323H103.449V72.7677ZM108.516 72.7677C109.068 72.7677 109.636 72.6367 110.06 72.222C110.488 71.8039 110.635 71.2315 110.635 70.6488H109.099C109.099 70.995 109.013 71.0982 108.987 71.1235C108.958 71.1521 108.85 71.2323 108.516 71.2323V72.7677ZM110.635 70.6488V60.7679H109.099V70.6488H110.635Z" fill="black"/>
<path d="M18.3395 80.1041C17.4527 80.1041 16.9882 80.5686 16.9038 81.4131L15.4681 94.4187L15.0036 100.119H14.9192L14.328 94.4187L12.5967 81.4131C12.4278 80.5686 11.9634 80.1041 11.1611 80.1041H5.54504C5.08055 80.1041 4.74275 80.273 4.53162 80.5264C4.32049 80.7797 4.27826 81.1598 4.36272 81.582L8.79643 108.311C8.96533 109.451 9.59872 110 10.6121 110H17.4527C18.4661 110 19.0573 109.451 19.2684 108.311L20.1129 101.639L20.8308 94.7565H20.9152L21.6331 101.639L22.4776 108.311C22.6465 109.451 23.2799 110 24.2933 110H31.1339C32.1473 110 32.7385 109.451 32.9496 108.311L37.3833 81.582C37.4677 81.1598 37.3833 80.7797 37.1722 80.5264C36.961 80.273 36.6232 80.1041 36.201 80.1041H30.5849C29.7404 80.1041 29.2759 80.5686 29.1493 81.4131L27.418 94.4187L26.8268 100.119H26.7424L26.2779 94.4187L24.8422 81.4131C24.7578 80.5686 24.2511 80.1041 23.4066 80.1041H18.3395ZM53.628 98.219C54.5148 98.219 54.9793 97.7967 54.9793 96.8678V92.7296C54.9793 91.8429 54.5148 91.3784 53.628 91.3784H47.0408V87.1981H54.0503C54.937 87.1981 55.4015 86.7758 55.4015 85.8468V81.4554C55.4015 80.5686 54.937 80.1041 54.0503 80.1041H40.7069C39.778 80.1041 39.3557 80.5686 39.3557 81.4554V108.649C39.3557 109.578 39.778 110 40.7069 110H54.2192C55.1059 110 55.5704 109.578 55.5704 108.649V104.257C55.5704 103.371 55.1059 102.906 54.2192 102.906H47.0408V98.219H53.628ZM72.4729 98.219C73.3597 98.219 73.8242 97.7967 73.8242 96.8678V92.7296C73.8242 91.8429 73.3597 91.3784 72.4729 91.3784H65.8857V87.1981H72.8952C73.7819 87.1981 74.2464 86.7758 74.2464 85.8468V81.4554C74.2464 80.5686 73.7819 80.1041 72.8952 80.1041H59.5518C58.6229 80.1041 58.2006 80.5686 58.2006 81.4554V108.649C58.2006 109.578 58.6229 110 59.5518 110H73.0641C73.9508 110 74.4153 109.578 74.4153 108.649V104.257C74.4153 103.371 73.9508 102.906 73.0641 102.906H65.8857V98.219H72.4729ZM84.8151 89.8161V81.4554C84.8151 80.5686 84.3506 80.1041 83.4639 80.1041H78.3968C77.4678 80.1041 77.0455 80.5686 77.0455 81.4554V108.649C77.0455 109.578 77.4678 110 78.3968 110H83.4639C84.3506 110 84.8151 109.578 84.8151 108.649V97.1211L88.9532 108.733C89.2066 109.578 89.7977 110 90.6845 110H96.0049C96.5116 110 96.8494 109.831 97.0183 109.493C97.1872 109.155 97.145 108.775 96.9761 108.311L91.3601 93.1941L96.385 81.7932C96.5961 81.3709 96.6383 80.9486 96.4694 80.6108C96.3005 80.273 95.9205 80.1041 95.4138 80.1041H90.1778C89.3332 80.1041 88.7843 80.5264 88.4465 81.3709L84.8151 89.8161ZM115.242 101.85C115.242 99.7814 114.82 98.0923 114.018 96.7411C113.173 95.4321 111.78 94.0386 109.837 92.5185C107.684 90.9139 106.628 89.4783 106.628 88.2959C106.628 87.7048 106.797 87.2403 107.135 86.9869C107.473 86.7336 108.064 86.6069 108.95 86.6069C110.091 86.6069 111.188 86.7336 112.202 86.9869C113.342 87.2403 113.933 86.9025 113.933 85.9735V81.7509C113.933 81.2442 113.806 80.9064 113.595 80.6531C113.384 80.3997 113.046 80.2308 112.54 80.1041C111.4 79.8508 109.795 79.6819 107.768 79.6819C104.39 79.6819 101.983 80.3575 100.59 81.6665C99.1963 82.9755 98.5207 85.129 98.5207 88.127C98.5207 90.4917 98.9851 92.4341 99.9141 93.8697C100.843 95.3054 102.11 96.6144 103.799 97.7967C105.235 98.8102 106.121 99.5702 106.544 100.035C106.924 100.499 107.135 101.006 107.135 101.597C107.135 102.864 105.995 103.497 103.757 103.497C102.363 103.497 101.181 103.371 100.21 103.033C99.0274 102.695 98.4784 103.033 98.4784 104.046V108.142C98.4784 108.649 98.5629 109.029 98.774 109.24C98.9851 109.451 99.3652 109.62 99.9563 109.789C101.392 110.211 103.334 110.422 105.868 110.422C108.57 110.422 110.808 109.747 112.582 108.353C114.355 106.96 115.242 104.806 115.242 101.85Z" fill="black"/>
</svg>
